<?xml version="1.0" encoding="UTF-8" standalone="no"?>
<svg
   xmlns:dc="http://purl.org/dc/elements/1.1/"
   xmlns:cc="http://creativecommons.org/ns#"
   xmlns:rdf="http://www.w3.org/1999/02/22-rdf-syntax-ns#"
   xmlns:svg="http://www.w3.org/2000/svg"
   xmlns="http://www.w3.org/2000/svg"
   xmlns:sodipodi="http://sodipodi.sourceforge.net/DTD/sodipodi-0.dtd"
   xmlns:inkscape="http://www.inkscape.org/namespaces/inkscape"
   enable-background="new 0 0 595.275 311.111"
   xml:space="preserve"
   height="32"
   width="64"
   version="1.1"
   y="0px"
   x="0px"
   viewBox="0 0 64 31.999997"
   id="svg2"
   inkscape:version="0.91 r13725"
   sodipodi:docname="feed-service-owncloud-symbolic.svg"><metadata
     id="metadata12"><rdf:RDF><cc:Work
         rdf:about=""><dc:format>image/svg+xml</dc:format><dc:type
           rdf:resource="http://purl.org/dc/dcmitype/StillImage" /><dc:title></dc:title></cc:Work></rdf:RDF></metadata><defs
     id="defs10" /><sodipodi:namedview
     pagecolor="#ffffff"
     bordercolor="#666666"
     borderopacity="1"
     objecttolerance="10"
     gridtolerance="10"
     guidetolerance="10"
     inkscape:pageopacity="0"
     inkscape:pageshadow="2"
     inkscape:window-width="1920"
     inkscape:window-height="1145"
     id="namedview8"
     showgrid="false"
     inkscape:zoom="7.375"
     inkscape:cx="-3.7078393"
     inkscape:cy="8.8795262"
     inkscape:window-x="0"
     inkscape:window-y="27"
     inkscape:window-maximized="1"
     inkscape:current-layer="svg2" /><path
     style="text-indent:0;text-transform:none;block-progression:tb;color:#000000;fill:#bebebe;fill-opacity:1;enable-background:accumulate"
     d="m 29.165911,-2e-6 c -4.465835,0 -8.073974,3.559259 -8.073974,7.964927 0,1.815983 0.612999,3.487345 1.646446,4.825716 2.241942,-2.559845 5.550981,-4.185433 9.245469,-4.185433 1.807494,0 3.521539,0.397061 5.065984,1.093227 0.125039,-0.55786 0.189978,-1.138017 0.189978,-1.73351 0,-4.405519 -3.607987,-7.964926 -8.073973,-7.964926 z M 18.622446,3.685529 c -2.325693,0 -4.195237,1.859927 -4.195237,4.15421 0,0.742828 0.19426,1.444716 0.538249,2.045884 1.403395,-0.781004 3.02594,-1.233755 4.749334,-1.233755 0.166319,0 0.326519,0.0059 0.490768,0.01578 -0.0186,-0.232575 -0.03164,-0.465526 -0.03164,-0.702776 0,-1.277851 0.281343,-2.493701 0.775747,-3.591963 C 20.28402,3.932579 19.486522,3.68577 18.622475,3.68577 z m 19.915435,2.857964 c -0.17182,0 -0.337435,0.02072 -0.506599,0.03117 0.07318,0.455127 0.126639,0.914675 0.126639,1.389966 0,0.739573 -0.09534,1.453251 -0.269129,2.139551 2.037444,1.112319 3.729488,2.776677 4.844335,4.794495 1.156296,-0.593867 2.446241,-0.971447 3.815288,-1.061957 C 46.195575,9.754716 42.767527,6.54359 38.537941,6.54359 z m -6.553979,2.967266 c -6.24898,0 -11.303463,4.985726 -11.303463,11.150803 0,6.164585 5.053984,11.150802 11.303463,11.150802 6.24948,0 11.303463,-4.986218 11.303463,-11.150802 0,-6.165077 -5.054483,-11.150803 -11.303463,-11.150803 z m -12.26896,0.04676 c -4.848084,0 -8.770471,3.869364 -8.770471,8.652022 0,2.815445 1.359796,5.307813 3.466988,6.887186 0.888347,-1.690253 2.672592,-2.842327 4.733485,-2.842327 0.249084,0 0.488164,0.02979 0.728247,0.06254 -0.07536,-0.540891 -0.110819,-1.094216 -0.110819,-1.65543 0,-2.68311 0.885347,-5.164281 2.390492,-7.16834 C 21.251867,12.381 20.60712,11.044649 20.33227,9.588835 20.128586,9.575025 19.922161,9.557665 19.714872,9.557665 z m 27.48291,5.153923 c -1.472095,0 -2.851091,0.370763 -4.068586,0.999513 0.691347,1.510664 1.076496,3.18681 1.076496,4.950707 0,3.302674 -1.346045,6.301705 -3.530339,8.480373 1.604645,1.757433 3.932838,2.857963 6.52248,2.857963 4.848083,0 8.77047,-3.869314 8.77047,-8.65202 0,-4.782609 -3.922337,-8.636238 -8.77047,-8.636238 z M 10.089974,15.851578 C 5.6234882,15.851084 2,19.39456 2,23.800227 c 0,4.40567 3.6236881,7.98022 8.089474,7.98022 1.699794,0 3.274439,-0.522445 4.575184,-1.405552 -0.537498,-0.823917 -0.854897,-1.808978 -0.854897,-2.857964 0,-0.544444 0.08144,-1.067531 0.237464,-1.561715 -2.435142,-1.736076 -4.021086,-4.561189 -4.021086,-7.745928 0,-0.809219 0.108099,-1.591704 0.300794,-2.34262 -0.07998,-0.002 -0.1569,-0.01578 -0.237469,-0.01578 z m 47.477344,6.840327 c -0.238244,0 -0.468778,0.02683 -0.696548,0.06254 0.0126,0.198658 0.0158,0.391676 0.0158,0.593471 0,2.540264 -1.016047,4.845941 -2.659642,6.55918 0.808598,0.927598 1.996294,1.514858 3.340389,1.514858 C 60.015506,31.421955 62,29.479899 62,27.064722 c 0,-2.415126 -1.984494,-4.37282 -4.432686,-4.37282 z m -38.421874,0.468504 c -2.448092,0 -4.416886,1.942204 -4.416886,4.357233 0,2.41503 1.968794,4.37282 4.416886,4.37282 1.876494,0 3.469289,-1.155082 4.116086,-2.779884 -1.578245,-1.585734 -2.712541,-3.608683 -3.213689,-5.856305 -0.293284,-0.05978 -0.590948,-0.09372 -0.902397,-0.09372 z"
     id="path6"
     inkscape:connector-curvature="0" /></svg>