<?xml version="1.0" encoding="UTF-8" standalone="no"?>
<!-- Created with Inkscape (http://www.inkscape.org/) -->

<svg
   xmlns:dc="http://purl.org/dc/elements/1.1/"
   xmlns:cc="http://creativecommons.org/ns#"
   xmlns:rdf="http://www.w3.org/1999/02/22-rdf-syntax-ns#"
   xmlns:svg="http://www.w3.org/2000/svg"
   xmlns="http://www.w3.org/2000/svg"
   xmlns:sodipodi="http://sodipodi.sourceforge.net/DTD/sodipodi-0.dtd"
   xmlns:inkscape="http://www.inkscape.org/namespaces/inkscape"
   width="64"
   height="64"
   viewBox="0 0 16.933333 16.933334"
   version="1.1"
   id="svg8"
   inkscape:version="0.92.1 r"
   sodipodi:docname="feed-service-bazqux-symbolic.svg">
  <defs
     id="defs2" />
  <sodipodi:namedview
     id="base"
     pagecolor="#ffffff"
     bordercolor="#666666"
     borderopacity="1.0"
     inkscape:pageopacity="0.0"
     inkscape:pageshadow="2"
     inkscape:zoom="11.2"
     inkscape:cx="31.364099"
     inkscape:cy="30.996224"
     inkscape:document-units="mm"
     inkscape:current-layer="layer1"
     showgrid="false"
     units="px"
     inkscape:window-width="1920"
     inkscape:window-height="1136"
     inkscape:window-x="0"
     inkscape:window-y="27"
     inkscape:window-maximized="1" />
  <metadata
     id="metadata5">
    <rdf:RDF>
      <cc:Work
         rdf:about="">
        <dc:format>image/svg+xml</dc:format>
        <dc:type
           rdf:resource="http://purl.org/dc/dcmitype/StillImage" />
        <dc:title />
      </cc:Work>
    </rdf:RDF>
  </metadata>
  <g
     inkscape:label="Layer 1"
     inkscape:groupmode="layer"
     id="layer1"
     transform="translate(0,-280.06665)">
    <path
       style="fill:#bebebe;fill-opacity:1;stroke-width:0.96334606"
       d="M 10.974609 4.2734375 C 7.1905641 4.2734375 4.1445312 7.3214235 4.1445312 11.105469 L 4.1445312 53.78125 C 4.1445312 57.565295 7.1905641 60.611328 10.974609 60.611328 L 53.564453 60.611328 C 57.348498 60.611328 60.394531 57.565295 60.394531 53.78125 L 60.394531 11.105469 C 60.394531 7.3214235 57.348498 4.2734375 53.564453 4.2734375 L 10.974609 4.2734375 z M 31.244141 13.361328 C 35.326073 13.361328 38.388721 14.132199 40.429688 15.671875 C 42.470654 17.211551 43.490234 19.458079 43.490234 22.412109 C 43.490234 25.079688 42.792935 27.245157 41.396484 28.910156 C 40.000034 30.557252 37.86842 31.829449 35.003906 32.724609 C 36.131809 34.443318 37.17027 36.107461 38.119141 37.71875 C 39.068011 39.312136 39.946309 40.780306 40.751953 42.123047 C 41.575501 43.447885 42.32749 44.620142 43.007812 45.640625 C 43.688135 46.661108 44.323256 47.467788 44.914062 48.058594 C 45.218417 48.362948 45.521817 48.630539 45.826172 48.863281 C 46.130526 49.07812 46.44532 49.257165 46.767578 49.400391 C 47.107739 49.543616 47.456389 49.669924 47.814453 49.777344 C 48.190421 49.884763 48.601248 49.99219 49.048828 50.099609 L 49.130859 51.28125 C 47.841828 51.442379 46.758117 51.521484 45.880859 51.521484 C 45.146828 51.521484 44.502265 51.504556 43.947266 51.46875 C 43.392266 51.432944 42.90038 51.361326 42.470703 51.253906 C 42.041026 51.146487 41.647127 51.012691 41.289062 50.851562 C 40.948901 50.67253 40.607739 50.448236 40.267578 50.179688 C 39.533546 49.624688 38.809878 48.827449 38.09375 47.789062 C 37.395525 46.732773 36.660463 45.541635 35.890625 44.216797 C 35.13869 42.891959 34.350892 41.48792 33.527344 40.001953 C 32.703796 38.498083 31.834939 37.029913 30.921875 35.597656 C 30.653327 35.167979 30.421545 34.826817 30.224609 34.576172 C 30.045577 34.325527 29.840164 34.129554 29.607422 33.986328 C 29.392583 33.843102 29.13248 33.745116 28.828125 33.691406 C 28.541674 33.637697 28.164702 33.601888 27.699219 33.583984 L 25.847656 33.529297 L 25.847656 42.847656 L 25.847656 45.748047 C 25.865559 46.607401 25.882487 47.385759 25.900391 48.083984 C 25.918294 48.638984 26.152029 48.989587 26.599609 49.132812 L 29.580078 50.017578 L 29.660156 51.173828 C 27.529674 51.120118 25.400014 51.091797 23.269531 51.091797 C 21.103243 51.091797 18.883083 51.120118 16.609375 51.173828 L 16.501953 50.017578 L 19.804688 49.025391 C 20.252268 48.900068 20.49349 48.621083 20.529297 48.191406 C 20.5472 47.475278 20.556641 46.679992 20.556641 45.802734 C 20.574544 44.907574 20.583984 43.921849 20.583984 42.847656 L 20.583984 21.068359 C 20.583984 20.155296 20.574544 19.331688 20.556641 18.597656 C 20.556641 17.863625 20.5472 17.202134 20.529297 16.611328 C 20.511394 16.145845 20.29654 15.840491 19.884766 15.697266 L 16.554688 14.650391 L 16.501953 13.496094 C 18.811468 13.567707 21.057996 13.603516 23.242188 13.603516 C 23.671865 13.603516 24.218441 13.594075 24.880859 13.576172 C 25.543278 13.540365 26.348005 13.504556 27.296875 13.46875 C 28.263648 13.432944 29.070328 13.406575 29.714844 13.388672 C 30.359359 13.370769 30.868173 13.361328 31.244141 13.361328 z M 29.310547 15.589844 C 28.809257 15.589844 28.272122 15.608725 27.699219 15.644531 C 27.126316 15.680338 26.510075 15.733075 25.847656 15.804688 L 25.847656 31.515625 C 26.939752 31.569335 27.949892 31.595703 28.880859 31.595703 C 31.978115 31.595703 34.243524 30.9417 35.675781 29.634766 C 37.125941 28.309928 37.851563 26.242445 37.851562 23.431641 C 37.851562 20.710352 37.16175 18.723928 35.783203 17.470703 C 34.404656 16.217478 32.246674 15.589844 29.310547 15.589844 z "
       id="rect4496"
       transform="matrix(0.26458333,0,0,0.26458333,0,280.06665)" />
  </g>
</svg>
