<?xml version="1.0" encoding="UTF-8" standalone="no"?>
<!-- Created with Inkscape (http://www.inkscape.org/) -->

<svg
   xmlns:dc="http://purl.org/dc/elements/1.1/"
   xmlns:cc="http://creativecommons.org/ns#"
   xmlns:rdf="http://www.w3.org/1999/02/22-rdf-syntax-ns#"
   xmlns:svg="http://www.w3.org/2000/svg"
   xmlns="http://www.w3.org/2000/svg"
   xmlns:sodipodi="http://sodipodi.sourceforge.net/DTD/sodipodi-0.dtd"
   xmlns:inkscape="http://www.inkscape.org/namespaces/inkscape"
   width="24"
   height="24"
   viewBox="0 0 24 24"
   id="svg4152"
   version="1.1"
   inkscape:version="0.91 r13725"
   sodipodi:docname="fr-free-symbolic.svg">
  <defs
     id="defs4154" />
  <sodipodi:namedview
     id="base"
     pagecolor="#ffffff"
     bordercolor="#666666"
     borderopacity="1.0"
     inkscape:pageopacity="0.0"
     inkscape:pageshadow="2"
     inkscape:zoom="15.839192"
     inkscape:cx="3.3759754"
     inkscape:cy="15.652904"
     inkscape:document-units="px"
     inkscape:current-layer="text4715"
     showgrid="false"
     units="px"
     inkscape:window-width="1920"
     inkscape:window-height="1131"
     inkscape:window-x="0"
     inkscape:window-y="30"
     inkscape:window-maximized="1" />
  <metadata
     id="metadata4157">
    <rdf:RDF>
      <cc:Work
         rdf:about="">
        <dc:format>image/svg+xml</dc:format>
        <dc:type
           rdf:resource="http://purl.org/dc/dcmitype/StillImage" />
        <dc:title></dc:title>
      </cc:Work>
    </rdf:RDF>
  </metadata>
  <g
     inkscape:label="Layer 1"
     inkscape:groupmode="layer"
     id="layer1"
     transform="translate(0,-1028.3622)">
    <path
       style="opacity:1;fill:#bebebe;fill-opacity:1;stroke:none;stroke-width:0.68699998;stroke-linejoin:miter;stroke-miterlimit:4;stroke-dasharray:none;stroke-dashoffset:0;stroke-opacity:1"
       d="m 12,1028.3622 a 12,12 0 0 0 -12,12 12,12 0 0 0 12,12 12,12 0 0 0 12,-12 12,12 0 0 0 -12,-12 z m 0,2.5 a 9.5,9.5 0 0 1 9.5,9.5 9.5,9.5 0 0 1 -9.5,9.5 9.5,9.5 0 0 1 -9.5,-9.5 9.5,9.5 0 0 1 9.5,-9.5 z"
       id="path4137"
       inkscape:connector-curvature="0" />
    <g
       transform="scale(0.9999982,1.0000018)"
       style="font-style:normal;font-weight:normal;font-size:18.31634521px;line-height:125%;font-family:sans-serif;letter-spacing:0px;word-spacing:0px;fill:#000000;fill-opacity:1;stroke:none;stroke-width:1px;stroke-linecap:butt;stroke-linejoin:miter;stroke-opacity:1"
       id="text4715">
      <path
         d="m 11.247352,1044.5861 0,-3.7473 q -1.7529316,-0.5009 -2.5757362,-1.5115 -0.813861,-1.0195 -0.813861,-2.4684 0,-1.4667 0.9211833,-2.4595 0.9301269,-1.0016 2.4684139,-1.1537 l 0,-0.8854 1.296811,0 0,0.8854 q 1.422021,0.1699 2.262713,0.9749 0.840692,0.7959 1.073223,2.1375 l -2.262712,0.2951 q -0.205701,-1.0553 -1.073224,-1.431 l 0,3.497 q 2.146447,0.5813 2.924534,1.5114 0.778087,0.9212 0.778087,2.37 0,1.6188 -0.983788,2.7278 -0.974845,1.109 -2.718833,1.3594 l 0,1.6725 -1.296811,0 0,-1.6277 q -1.5472305,-0.1879 -2.5131315,-1.1538 -0.965901,-0.9659 -1.2342069,-2.7277 l 2.3342608,-0.2505 q 0.1430965,0.7155 0.5366116,1.2343 0.393515,0.5187 0.876466,0.7512 z m 0,-9.3907 q -0.527668,0.1789 -0.840692,0.6082 -0.313023,0.4293 -0.313023,0.948 0,0.474 0.286193,0.8854 0.286193,0.4024 0.867522,0.6529 l 0,-3.0945 z m 1.296811,9.5159 q 0.670765,-0.1252 1.091111,-0.6171 0.420346,-0.5008 0.420346,-1.1716 0,-0.5992 -0.357741,-1.0285 -0.348798,-0.4382 -1.153716,-0.6708 l 0,3.488 z"
         style="font-style:normal;font-variant:normal;font-weight:bold;font-stretch:normal;font-size:18.31634521px;line-height:125%;font-family:Arial;-inkscape-font-specification:'Arial, Bold';text-align:start;writing-mode:lr-tb;text-anchor:start;fill:#bebebe;fill-opacity:1"
         id="path4720" />
      <path
         style="color:#000000;font-style:normal;font-variant:normal;font-weight:normal;font-stretch:normal;font-size:medium;line-height:125%;font-family:sans-serif;text-indent:0;text-align:start;text-decoration:none;text-decoration-line:none;text-decoration-style:solid;text-decoration-color:#000000;letter-spacing:0px;word-spacing:0px;text-transform:none;direction:ltr;block-progression:tb;writing-mode:lr-tb;baseline-shift:baseline;text-anchor:start;white-space:normal;clip-rule:nonzero;display:inline;overflow:visible;visibility:visible;opacity:1;isolation:auto;mix-blend-mode:normal;color-interpolation:sRGB;color-interpolation-filters:linearRGB;solid-color:#000000;solid-opacity:1;fill:#bebebe;fill-opacity:1;fill-rule:evenodd;stroke:none;stroke-width:2;stroke-linecap:butt;stroke-linejoin:miter;stroke-miterlimit:4;stroke-dasharray:none;stroke-dashoffset:0;stroke-opacity:1;color-rendering:auto;image-rendering:auto;shape-rendering:auto;text-rendering:auto;enable-background:accumulate"
         d="m 5.2460938,1031.8223 -1.4003907,1.4277 14.9628909,14.6484 1.40039,-1.4296 -14.9628902,-14.6465 z"
         id="path4745"
         inkscape:connector-curvature="0" />
    </g>
  </g>
</svg>
