<?xml version="1.0" encoding="UTF-8" standalone="no"?>
<svg
   xmlns:dc="http://purl.org/dc/elements/1.1/"
   xmlns:cc="http://creativecommons.org/ns#"
   xmlns:rdf="http://www.w3.org/1999/02/22-rdf-syntax-ns#"
   xmlns:svg="http://www.w3.org/2000/svg"
   xmlns="http://www.w3.org/2000/svg"
   xmlns:sodipodi="http://sodipodi.sourceforge.net/DTD/sodipodi-0.dtd"
   xmlns:inkscape="http://www.inkscape.org/namespaces/inkscape"
   width="24"
   height="24"
   version="1.1"
   id="svg2"
   inkscape:version="0.91 r13725"
   sodipodi:docname="Copyright.svg">
  <metadata
     id="metadata18">
    <rdf:RDF>
      <cc:Work
         rdf:about="">
        <dc:format>image/svg+xml</dc:format>
        <dc:type
           rdf:resource="http://purl.org/dc/dcmitype/StillImage" />
        <dc:title />
      </cc:Work>
    </rdf:RDF>
  </metadata>
  <defs
     id="defs16" />
  <sodipodi:namedview
     pagecolor="#ffffff"
     bordercolor="#666666"
     borderopacity="1"
     objecttolerance="10"
     gridtolerance="10"
     guidetolerance="10"
     inkscape:pageopacity="0"
     inkscape:pageshadow="2"
     inkscape:window-width="1214"
     inkscape:window-height="710"
     id="namedview14"
     showgrid="false"
     inkscape:zoom="8"
     inkscape:cx="4.1498178"
     inkscape:cy="5.1370895"
     inkscape:window-x="264"
     inkscape:window-y="221"
     inkscape:window-maximized="0"
     inkscape:current-layer="svg2" />
  <path
     style="opacity:1;fill:#bebebe;fill-opacity:1;stroke:none;stroke-width:0.68699998;stroke-linejoin:miter;stroke-miterlimit:4;stroke-dasharray:none;stroke-dashoffset:0;stroke-opacity:1"
     d="M 12,0 A 12,12 0 0 0 0,12 12,12 0 0 0 12,24 12,12 0 0 0 24,12 12,12 0 0 0 12,0 Z m 0,2.5 A 9.5,9.5 0 0 1 21.5,12 9.5,9.5 0 0 1 12,21.5 9.5,9.5 0 0 1 2.5,12 9.5,9.5 0 0 1 12,2.5 Z"
     id="path4137"
     inkscape:connector-curvature="0" />
  <path
     style="opacity:1;fill:#bebebe;fill-opacity:1;stroke:none;stroke-width:0.68699998;stroke-linejoin:miter;stroke-miterlimit:4;stroke-dasharray:none;stroke-dashoffset:0;stroke-opacity:1"
     d="M 12,5.25 A 6.75,6.75 0 0 0 5.25,12 6.75,6.75 0 0 0 12,18.75 6.75,6.75 0 0 0 18.572266,13.5 l -3.138672,0 A 3.75,3.75 0 0 1 12,15.75 3.75,3.75 0 0 1 8.25,12 3.75,3.75 0 0 1 12,8.25 a 3.75,3.75 0 0 1 3.386719,2.150391 l 3.162109,0 A 6.75,6.75 0 0 0 12,5.25 Z"
     id="path4156"
     inkscape:connector-curvature="0" />
</svg>
