<?xml version="1.0" encoding="UTF-8" standalone="no"?>
<svg
   xmlns:dc="http://purl.org/dc/elements/1.1/"
   xmlns:cc="http://creativecommons.org/ns#"
   xmlns:rdf="http://www.w3.org/1999/02/22-rdf-syntax-ns#"
   xmlns:svg="http://www.w3.org/2000/svg"
   xmlns="http://www.w3.org/2000/svg"
   xmlns:sodipodi="http://sodipodi.sourceforge.net/DTD/sodipodi-0.dtd"
   xmlns:inkscape="http://www.inkscape.org/namespaces/inkscape"
   version="1.1"
   x="0px"
   y="0px"
   viewBox="0 0 24 24"
   id="svg2"
   inkscape:version="0.91 r13725"
   sodipodi:docname="cloud.svg"
   width="24"
   height="24">
  <metadata
     id="metadata16">
    <rdf:RDF>
      <cc:Work
         rdf:about="">
        <dc:format>image/svg+xml</dc:format>
        <dc:type
           rdf:resource="http://purl.org/dc/dcmitype/StillImage" />
        <dc:title></dc:title>
      </cc:Work>
    </rdf:RDF>
  </metadata>
  <defs
     id="defs14" />
  <sodipodi:namedview
     pagecolor="#ffffff"
     bordercolor="#666666"
     borderopacity="1"
     objecttolerance="10"
     gridtolerance="10"
     guidetolerance="10"
     inkscape:pageopacity="0"
     inkscape:pageshadow="2"
     inkscape:window-width="1920"
     inkscape:window-height="1131"
     id="namedview12"
     showgrid="false"
     inkscape:zoom="10.680141"
     inkscape:cx="24.421163"
     inkscape:cy="9.5076356"
     inkscape:window-x="0"
     inkscape:window-y="30"
     inkscape:window-maximized="1"
     inkscape:current-layer="g4" />
  <g
     transform="translate(0,-1053.3622)"
     id="g4"
     style="fill:#000000;fill-opacity:1;stroke:none">
    <path
       d="m 9.914286,1058.5528 c -2.415021,0 -4.380953,1.9659 -4.380953,4.3809 0,0.238 0.03472,0.4635 0.07143,0.6904 C 4.756051,1064.323 4.2,1065.3695 4.2,1066.5527 c 0,2.0995 1.710093,3.8095 3.809524,3.8095 l 8.761905,0 c 1.889036,0 3.428571,-1.5395 3.428571,-3.4285 0,-1.6558 -1.185488,-3.0288 -2.75,-3.3453 0.05079,-0.2122 0.08333,-0.4272 0.08333,-0.6547 0,-1.5734 -1.283699,-2.8571 -2.857143,-2.8571 -0.446672,0 -0.859346,0.1256 -1.238095,0.3095 -0.794941,-1.0993 -2.064756,-1.8333 -3.523809,-1.8333 z"
       style="color:#000000;text-indent:0;text-transform:none;direction:ltr;block-progression:tb;baseline-shift:baseline;display:inline;overflow:visible;visibility:visible;fill:#bebebe;fill-opacity:1;stroke:none;marker:none;enable-background:accumulate"
       visibility="visible"
       display="inline"
       overflow="visible"
       id="path6"
       inkscape:connector-curvature="0"
       sodipodi:nodetypes="sscsssscsscs" />
    <path
       style="opacity:1;fill:#bebebe;fill-opacity:1;stroke:none;stroke-width:0.68699998;stroke-linejoin:miter;stroke-miterlimit:4;stroke-dasharray:none;stroke-dashoffset:0;stroke-opacity:1"
       d="m 12,1053.3622 a 12,12 0 0 0 -12,12 12,12 0 0 0 12,12 12,12 0 0 0 12,-12 12,12 0 0 0 -12,-12 z m 0,2.5 a 9.5,9.5 0 0 1 9.5,9.5 9.5,9.5 0 0 1 -9.5,9.5 9.5,9.5 0 0 1 -9.5,-9.5 9.5,9.5 0 0 1 9.5,-9.5 z"
       id="path4137"
       inkscape:connector-curvature="0" />
  </g>
</svg>
