<?xml version="1.0" encoding="UTF-8" standalone="no"?>
<svg
   xmlns:dc="http://purl.org/dc/elements/1.1/"
   xmlns:cc="http://creativecommons.org/ns#"
   xmlns:rdf="http://www.w3.org/1999/02/22-rdf-syntax-ns#"
   xmlns:svg="http://www.w3.org/2000/svg"
   xmlns="http://www.w3.org/2000/svg"
   xmlns:sodipodi="http://sodipodi.sourceforge.net/DTD/sodipodi-0.dtd"
   xmlns:inkscape="http://www.inkscape.org/namespaces/inkscape"
   version="1.1"
   width="16px"
   height="16px"
   id="svg2"
   inkscape:version="0.91 r13725"
   sodipodi:docname="feed-sidebar-arrow.svg">
  <metadata
     id="metadata10">
    <rdf:RDF>
      <cc:Work
         rdf:about="">
        <dc:format>image/svg+xml</dc:format>
        <dc:type
           rdf:resource="http://purl.org/dc/dcmitype/StillImage" />
        <dc:title></dc:title>
      </cc:Work>
    </rdf:RDF>
  </metadata>
  <defs
     id="defs8" />
  <sodipodi:namedview
     pagecolor="#ffffff"
     bordercolor="#666666"
     borderopacity="1"
     objecttolerance="10"
     gridtolerance="10"
     guidetolerance="10"
     inkscape:pageopacity="0"
     inkscape:pageshadow="2"
     inkscape:window-width="1348"
     inkscape:window-height="923"
     id="namedview6"
     showgrid="false"
     inkscape:zoom="29.5"
     inkscape:cx="8.648285"
     inkscape:cy="7.0885595"
     inkscape:window-x="339"
     inkscape:window-y="94"
     inkscape:window-maximized="0"
     inkscape:current-layer="svg2" />
  <path
     d="m 1.7558654,3.0000133 c -0.487624,0 -0.92927301,0.1848905 -1.24882701,0.4997864 C 0.18748239,3.8144866 1.3390556e-5,4.2495932 1.3390556e-5,4.7300261 c 0,0.4804327 0.187468999444,0.9155733 0.507024999444,1.2302604 L 7.3755867,12.726626 c 0.6244136,0.615121 1.2488272,0 1.2488272,0 L 15.492963,5.9602865 c 0.319555,-0.3146871 0.507024,-0.7498106 0.507024,-1.2302434 0,-0.4804328 -0.187469,-0.9155565 -0.507024,-1.2302434 -0.319555,-0.3148959 -0.761204,-0.4997864 -1.248827,-0.4997864 -0.487623,0 -0.929272,0.1848905 -1.248827,0.4997864 l -4.3708951,4.305852 c -0.6244136,0.6151217 -0.6244136,0.6151217 -1.2488272,0 L 3.0046924,3.4997997 C 2.6851374,3.1849038 2.2434874,3.0000133 1.7558654,3.0000133 Z"
     style="fill:#ffffff;fill-opacity:1;stroke:none"
     id="path4"
     inkscape:connector-curvature="0" />
</svg>
