<?xml version="1.0" encoding="UTF-8" standalone="no"?>
<!-- Created with Inkscape (http://www.inkscape.org/) -->

<svg
   xmlns:dc="http://purl.org/dc/elements/1.1/"
   xmlns:cc="http://creativecommons.org/ns#"
   xmlns:rdf="http://www.w3.org/1999/02/22-rdf-syntax-ns#"
   xmlns:svg="http://www.w3.org/2000/svg"
   xmlns="http://www.w3.org/2000/svg"
   xmlns:sodipodi="http://sodipodi.sourceforge.net/DTD/sodipodi-0.dtd"
   xmlns:inkscape="http://www.inkscape.org/namespaces/inkscape"
   sodipodi:docname="feed-tag-symbolic.svg"
   inkscape:export-filename="/home/sam/dev/RESOURCES/gnome-icon-theme-symbolic/src/gnome-stencils.png"
   inkscape:export-xdpi="90"
   inkscape:export-ydpi="90"
   height="16"
   id="svg7384"
   version="1.1"
   inkscape:version="0.91 r13725"
   width="16">
  <metadata
     id="metadata90">
    <rdf:RDF>
      <cc:Work
         rdf:about="">
        <dc:format>image/svg+xml</dc:format>
        <dc:type
           rdf:resource="http://purl.org/dc/dcmitype/StillImage" />
        <dc:title>elementary Symbolic Icon Theme</dc:title>
      </cc:Work>
    </rdf:RDF>
  </metadata>
  <sodipodi:namedview
     inkscape:bbox-nodes="true"
     inkscape:bbox-paths="true"
     bordercolor="#666666"
     borderopacity="1"
     inkscape:current-layer="layer12"
     inkscape:cx="14.481999"
     inkscape:cy="11.596014"
     gridtolerance="10"
     inkscape:guide-bbox="true"
     guidetolerance="10"
     id="namedview88"
     inkscape:object-nodes="true"
     inkscape:object-paths="false"
     objecttolerance="10"
     pagecolor="#3a3b39"
     inkscape:pageopacity="1"
     inkscape:pageshadow="2"
     showborder="false"
     showgrid="true"
     showguides="true"
     inkscape:snap-bbox="true"
     inkscape:snap-bbox-edge-midpoints="true"
     inkscape:snap-bbox-midpoints="true"
     inkscape:snap-global="true"
     inkscape:snap-grids="true"
     inkscape:snap-nodes="true"
     inkscape:snap-others="false"
     inkscape:snap-to-guides="true"
     inkscape:window-height="1136"
     inkscape:window-maximized="1"
     inkscape:window-width="1920"
     inkscape:window-x="0"
     inkscape:window-y="27"
     inkscape:zoom="32">
    <inkscape:grid
       dotted="false"
       empspacing="4"
       enabled="true"
       id="grid4866"
       originx="-273.00021px"
       originy="-48px"
       snapvisiblegridlinesonly="true"
       spacingx="1px"
       spacingy="1px"
       type="xygrid"
       visible="true" />
    <inkscape:grid
       color="#000000"
       dotted="true"
       empcolor="#000000"
       empopacity="0.25098039"
       empspacing="4"
       enabled="true"
       id="grid13609"
       opacity="0.1254902"
       originx="-273.00021px"
       originy="-48px"
       snapvisiblegridlinesonly="true"
       spacingx="0.5px"
       spacingy="0.5px"
       type="xygrid"
       visible="true" />
  </sodipodi:namedview>
  <title
     id="title9167">elementary Symbolic Icon Theme</title>
  <defs
     id="defs7386">
    <filter
       id="filter7554"
       style="color-interpolation-filters:sRGB">
      <feBlend
         id="feBlend7556"
         in2="BackgroundImage"
         mode="darken" />
    </filter>
    <filter
       id="filter7554-7"
       style="color-interpolation-filters:sRGB">
      <feBlend
         id="feBlend7556-6"
         in2="BackgroundImage"
         mode="darken" />
    </filter>
  </defs>
  <g
     inkscape:groupmode="layer"
     id="layer9"
     label="status"
     inkscape:label="status"
     style="display:inline"
     transform="translate(-514.00041,-169)" />
  <g
     inkscape:groupmode="layer"
     id="layer10"
     inkscape:label="devices"
     style="display:inline"
     transform="translate(-514.00041,-169)" />
  <g
     inkscape:groupmode="layer"
     id="layer13"
     inkscape:label="places"
     style="display:inline"
     transform="translate(-514.00041,-169)" />
  <g
     inkscape:groupmode="layer"
     id="layer14"
     inkscape:label="mimes"
     transform="translate(-514.00041,-169)" />
  <g
     inkscape:groupmode="layer"
     id="layer15"
     inkscape:label="emblems"
     style="display:inline"
     transform="translate(-514.00041,-169)" />
  <g
     inkscape:groupmode="layer"
     id="g71291"
     inkscape:label="emotes"
     style="display:inline"
     transform="translate(-514.00041,-169)" />
  <g
     inkscape:groupmode="layer"
     id="layer12"
     inkscape:label="actions"
     style="display:inline"
     transform="translate(-514.00041,-169)">
    <g
       id="g5317"
       inkscape:label="folder-remote"
       transform="translate(286.00061,-827)" />
    <path
       inkscape:connector-curvature="0"
       d="m 515.7611,169.76071 0,1.65277 c 0.2303,-0.13255 0.47902,-0.23729 0.73104,-0.31784 0.43805,-0.14005 0.89003,-0.19793 1.36671,-0.12713 0.46725,0.0695 0.94522,0.25104 1.36672,0.54032 l 0,0.0317 c 0.71891,0.50463 0.91936,1.3749 0.41319,2.09776 -0.50526,0.72163 -1.41061,0.87986 -2.12954,0.3814 -0.0378,-0.0267 -0.0226,0.0115 -0.0317,0 -0.0292,-0.0368 0.006,-0.0642 -0.0953,-0.0317 -0.008,0.003 -0.20686,0.14212 -0.31784,0.31784 -0.11107,0.17585 -0.13904,0.35059 -0.12714,0.44498 0.0211,0.16704 -2.5e-4,0.13963 0.25427,0.31784 1.83821,1.28713 2.46693,3.40401 1.84348,5.08547 l 3.84578,3.84588 7.11964,-7.11965 -7.11964,-7.11965 -7.11964,0 z"
       id="path4849"
       style="fill:#bebebe;fill-opacity:1;stroke:none" />
    <path
       inkscape:connector-curvature="0"
       d="m 515.64192,172.79999 c 0.30626,-0.34962 0.70014,-0.60732 1.14579,-0.74974 0.59419,-0.18992 1.26954,-0.1199 1.87994,0.3075 0.22242,0.15078 0.28494,0.49232 0.13082,0.71242 -0.15411,0.22012 -0.49629,0.27796 -0.7142,0.12074 -0.37418,-0.262 -0.68658,-0.26764 -1.01028,-0.16418 -0.3237,0.10344 -0.63735,0.37786 -0.85415,0.72114 -0.21679,0.3433 -0.32915,0.74333 -0.28138,1.12224 0.0478,0.37889 0.21352,0.73152 0.66385,1.04684 1.80402,1.26319 2.06963,3.26672 1.13984,4.52306 -0.51854,0.70066 -1.38225,1.12833 -2.4061,1.10891 l -0.50501,-1.05203 c 0.9819,0.22146 1.70224,-0.13396 2.09619,-0.6663 0.58131,-0.78551 0.54054,-2.06599 -0.90831,-3.08049 -0.65982,-0.46203 -1.00648,-1.12295 -1.08816,-1.77078 -0.0817,-0.64782 0.10795,-1.26667 0.43769,-1.78879 0.0826,-0.1304 0.17137,-0.274 0.27347,-0.39054 z m -1.64151,7.3869 c 0.083,0.041 0.1647,0.0602 0.24475,0.0938 l 0.55445,1.20306 c -0.0678,-0.0111 -0.14199,-0.0164 -0.21087,-0.0313 z m 0.41917,0.17716 c 0.0879,0.0321 0.17889,0.0441 0.26296,0.0677 l 0.5128,1.09629 c -0.0776,-0.004 -0.14982,0.004 -0.22914,-0.005 z"
       id="path7413-8"
       sodipodi:nodetypes="sscscscssccccsscscccccccccc"
       style="color:#000000;font-style:normal;font-variant:normal;font-weight:normal;font-stretch:normal;font-size:medium;line-height:normal;font-family:Sans;-inkscape-font-specification:Sans;text-indent:0;text-align:start;text-decoration:none;text-decoration-line:none;letter-spacing:normal;word-spacing:normal;text-transform:none;direction:ltr;block-progression:tb;writing-mode:lr-tb;baseline-shift:baseline;text-anchor:start;display:inline;overflow:visible;visibility:visible;fill:#bebebe;fill-opacity:1;stroke:none;stroke-width:1;marker:none;enable-background:accumulate" />
  </g>
</svg>
