<?xml version="1.0" encoding="UTF-8" standalone="no"?>
<!-- Created with Inkscape (http://www.inkscape.org/) -->

<svg
   xmlns:dc="http://purl.org/dc/elements/1.1/"
   xmlns:cc="http://creativecommons.org/ns#"
   xmlns:rdf="http://www.w3.org/1999/02/22-rdf-syntax-ns#"
   xmlns:svg="http://www.w3.org/2000/svg"
   xmlns="http://www.w3.org/2000/svg"
   xmlns:sodipodi="http://sodipodi.sourceforge.net/DTD/sodipodi-0.dtd"
   xmlns:inkscape="http://www.inkscape.org/namespaces/inkscape"
   version="1.1"
   width="16"
   height="16"
   id="svg4082"
   inkscape:version="0.91 r13725"
   sodipodi:docname="feed-share-symbolic.svg">
  <sodipodi:namedview
     pagecolor="#ffffff"
     bordercolor="#666666"
     borderopacity="1"
     objecttolerance="10"
     gridtolerance="10"
     guidetolerance="10"
     inkscape:pageopacity="0"
     inkscape:pageshadow="2"
     inkscape:window-width="1920"
     inkscape:window-height="1136"
     id="namedview54"
     showgrid="false"
     inkscape:zoom="20.09375"
     inkscape:cx="-3.8271738"
     inkscape:cy="10.382784"
     inkscape:window-x="0"
     inkscape:window-y="27"
     inkscape:window-maximized="1"
     inkscape:current-layer="svg4082" />
  <defs
     id="defs4084" />
  <metadata
     id="metadata4087">
    <rdf:RDF>
      <cc:Work
         rdf:about="">
        <dc:format>image/svg+xml</dc:format>
        <dc:type
           rdf:resource="http://purl.org/dc/dcmitype/StillImage" />
        <dc:title></dc:title>
      </cc:Work>
    </rdf:RDF>
  </metadata>
  <path
     d="m 9.361706,2.1304351 c -1.51558,0 -2.828128,0.886803 -3.478724,2.173918 -0.421675,-0.273767 -0.920845,-0.434775 -1.457447,-0.434775 -1.50409,0 -2.723401,1.2457903 -2.723401,2.7826059 0,0.244331 0.03782,0.480713 0.09574,0.706505 C 0.711569,8.107302 0,9.38087 0,10.826071 0,13.138416 1.821958,15 4.085104,15 l 7.829795,0 C 14.178047,15 16,13.138416 16,10.826071 16,8.979569 14.833313,7.422795 13.212762,6.869552 c 0.04397,-0.239981 0.06383,-0.48608 0.06383,-0.739105 0,-2.2091619 -1.75275,-4.0000129 -3.914886,-4.0000129 z"
     id="rect4519"
     style="color:#000000;display:inline;overflow:visible;visibility:visible;fill:#bebebe;fill-opacity:1;fill-rule:nonzero;stroke:none;stroke-width:1;marker:none;enable-background:accumulate"
     inkscape:connector-curvature="0" />
</svg>
