<?xml version="1.0" encoding="UTF-8" standalone="no"?>
<!-- Generator: Adobe Illustrator 16.0.0, SVG Export Plug-In . SVG Version: 6.00 Build 0)  -->

<svg
   xmlns:dc="http://purl.org/dc/elements/1.1/"
   xmlns:cc="http://creativecommons.org/ns#"
   xmlns:rdf="http://www.w3.org/1999/02/22-rdf-syntax-ns#"
   xmlns:svg="http://www.w3.org/2000/svg"
   xmlns="http://www.w3.org/2000/svg"
   xmlns:sodipodi="http://sodipodi.sourceforge.net/DTD/sodipodi-0.dtd"
   xmlns:inkscape="http://www.inkscape.org/namespaces/inkscape"
   id="Layer_1"
   xml:space="preserve"
   height="32"
   viewBox="0 0 32 31.999692"
   width="32"
   version="1.1"
   y="0px"
   x="0px"
   enable-background="new 0 0 415 414.996"
   inkscape:version="0.48.4 r9939"
   sodipodi:docname="pocket.svg"><metadata
     id="metadata9"><rdf:RDF><cc:Work
         rdf:about=""><dc:format>image/svg+xml</dc:format><dc:type
           rdf:resource="http://purl.org/dc/dcmitype/StillImage" /></cc:Work></rdf:RDF></metadata><defs
     id="defs7" /><sodipodi:namedview
     pagecolor="#ffffff"
     bordercolor="#666666"
     borderopacity="1"
     objecttolerance="10"
     gridtolerance="10"
     guidetolerance="10"
     inkscape:pageopacity="0"
     inkscape:pageshadow="2"
     inkscape:window-width="1920"
     inkscape:window-height="1145"
     id="namedview5"
     showgrid="false"
     inkscape:snap-global="true"
     inkscape:zoom="12.86764"
     inkscape:cx="13.307976"
     inkscape:cy="9.1427679"
     inkscape:window-x="0"
     inkscape:window-y="30"
     inkscape:window-maximized="1"
     inkscape:current-layer="Layer_1" /><path
     d="m 0.08069806,4.373209 c 0.78073,-1.75605 2.18517004,-2.19103 4.01312004,-2.17706 8.1168799,0.0615 16.2350699,0.0278 24.3520499,0.0253 0.93482,-2.2e-4 1.91858,-0.0122 2.56731,0.7503 0.42957,0.50493 0.8914,1.19925 0.89736,1.81301 0.0385,3.94403 0.17217,7.90637 -0.13709,11.83005 -0.50937,6.46349 -5.4206,11.92859 -11.73585,13.50521 -9.0255,2.25231 -17.8788199,-3.3763 -19.65251994,-12.50033 -0.12658,-0.65133 -0.204,-1.31219 -0.30427,-1.96872 -1.1e-4,-3.75963 -1.1e-4,-7.51926 -1.1e-4,-11.27889 z M 16.088358,16.613659 c -0.4209,-0.38463 -0.79784,-0.71652 -1.16059,-1.06314 -1.58691,-1.51608 -3.16017,-3.04647 -4.75747,-4.55151 -1.0343303,-0.97456 -2.3075403,-0.95821 -3.2243803,-0.002 -0.86281,0.90027 -0.86194,2.25101 0.0835,3.16742 2.46617,2.39124 4.9506403,4.76396 7.4523303,7.11785 1.00889,0.94954 2.07852,1.01429 3.07029,0.0916 2.584,-2.40542 5.15066,-4.83283 7.64293,-7.33225 1.26303,-1.2666 0.54272,-3.32638 -1.20368,-3.71231 -0.90364,-0.19989 -1.58864,0.22805 -2.21377,0.83163 -1.87223,1.80726 -3.75747,3.6037 -5.68818,5.45103 z"
     clip-rule="evenodd"
     id="path3"
     inkscape:connector-curvature="0"
     style="fill:#ff0042;fill-rule:evenodd;stroke:#ff0042;stroke-width:0.10828424" /></svg>