<?xml version="1.0" encoding="UTF-8" standalone="no"?>
<!-- Generator: Adobe Illustrator 16.0.0, SVG Export Plug-In . SVG Version: 6.00 Build 0)  -->

<svg
   xmlns:dc="http://purl.org/dc/elements/1.1/"
   xmlns:cc="http://creativecommons.org/ns#"
   xmlns:rdf="http://www.w3.org/1999/02/22-rdf-syntax-ns#"
   xmlns:svg="http://www.w3.org/2000/svg"
   xmlns="http://www.w3.org/2000/svg"
   xmlns:sodipodi="http://sodipodi.sourceforge.net/DTD/sodipodi-0.dtd"
   xmlns:inkscape="http://www.inkscape.org/namespaces/inkscape"
   version="1.1"
   id="Capa_1"
   x="0px"
   y="0px"
   width="369.793px"
   height="369.792px"
   viewBox="0 0 369.793 369.792"
   style="enable-background:new 0 0 369.793 369.792;"
   xml:space="preserve"
   inkscape:version="0.91 r13725"
   sodipodi:docname="customize_logo.svg"><metadata
     id="metadata45"><rdf:RDF><cc:Work
         rdf:about=""><dc:format>image/svg+xml</dc:format><dc:type
           rdf:resource="http://purl.org/dc/dcmitype/StillImage" /></cc:Work></rdf:RDF></metadata><defs
     id="defs43" /><sodipodi:namedview
     pagecolor="#ffffff"
     bordercolor="#666666"
     borderopacity="1"
     objecttolerance="10"
     gridtolerance="10"
     guidetolerance="10"
     inkscape:pageopacity="0"
     inkscape:pageshadow="2"
     inkscape:window-width="1920"
     inkscape:window-height="1145"
     id="namedview41"
     showgrid="false"
     inkscape:zoom="0.63819662"
     inkscape:cx="-204.48193"
     inkscape:cy="184.896"
     inkscape:window-x="0"
     inkscape:window-y="27"
     inkscape:window-maximized="1"
     inkscape:current-layer="Capa_1" /><g
     id="g3"
     transform="matrix(0.86534665,0,0,0.86534665,24.897,24.896865)"><g
       id="g5"><g
         id="g7"><path
           d="m 320.83,140.434 -1.759,-0.627 -6.87,-16.399 0.745,-1.685 C 333.758,74.522 332.323,73.114 328.871,69.692 L 301.11,42.61 c -1.135,-1.126 -3.128,-1.918 -4.846,-1.918 -1.562,0 -6.293,0 -47.294,18.57 L 247.326,60 230.41,53.188 229.731,51.504 C 210.45,3.762 208.475,3.762 203.677,3.762 l -39.205,0 c -4.78,0 -6.957,0 -24.836,47.825 l -0.673,1.741 -16.828,6.86 -1.609,-0.669 C 92.774,47.819 76.57,41.886 72.346,41.886 c -1.714,0 -3.714,0.769 -4.854,1.892 l -27.787,27.16 c -3.525,3.477 -4.987,4.933 16.915,51.149 l 0.805,1.714 -6.881,16.381 -1.684,0.651 C 0,159.715 0,161.556 0,166.474 l 0,38.418 c 0,4.931 0,6.979 48.957,24.524 l 1.75,0.618 6.882,16.333 -0.739,1.669 C 36.038,295.259 37.358,296.537 40.901,300.061 L 68.62,327.18 c 1.162,1.117 3.173,1.915 4.888,1.915 1.552,0 6.272,0 47.3,-18.561 l 1.643,-0.769 16.927,6.846 0.658,1.693 c 19.293,47.726 21.275,47.726 26.076,47.726 l 39.217,0 c 4.924,0 6.966,0 24.859,-47.857 l 0.667,-1.742 16.855,-6.814 1.604,0.654 c 27.729,11.733 43.925,17.654 48.122,17.654 1.699,0 3.717,-0.745 4.876,-1.893 l 27.832,-27.219 c 3.501,-3.495 4.96,-4.924 -16.981,-51.096 l -0.816,-1.734 6.869,-16.31 1.64,-0.643 c 48.938,-18.981 48.938,-20.831 48.938,-25.755 l 0,-38.395 c -10e-4,-4.93 -10e-4,-6.966 -48.964,-24.446 z M 184.896,247.203 c -35.038,0 -63.542,-27.959 -63.542,-62.3 0,-34.342 28.505,-62.264 63.542,-62.264 35.023,0 63.522,27.928 63.522,62.264 0.001,34.335 -28.498,62.3 -63.522,62.3 z"
           id="path9"
           inkscape:connector-curvature="0" /></g></g></g><g
     id="g11"
     transform="matrix(0.86534665,0,0,0.86534665,24.897,24.896865)" /><g
     id="g13"
     transform="matrix(0.86534665,0,0,0.86534665,24.897,24.896865)" /><g
     id="g15"
     transform="matrix(0.86534665,0,0,0.86534665,24.897,24.896865)" /><g
     id="g17"
     transform="matrix(0.86534665,0,0,0.86534665,24.897,24.896865)" /><g
     id="g19"
     transform="matrix(0.86534665,0,0,0.86534665,24.897,24.896865)" /><g
     id="g21"
     transform="matrix(0.86534665,0,0,0.86534665,24.897,24.896865)" /><g
     id="g23"
     transform="matrix(0.86534665,0,0,0.86534665,24.897,24.896865)" /><g
     id="g25"
     transform="matrix(0.86534665,0,0,0.86534665,24.897,24.896865)" /><g
     id="g27"
     transform="matrix(0.86534665,0,0,0.86534665,24.897,24.896865)" /><g
     id="g29"
     transform="matrix(0.86534665,0,0,0.86534665,24.897,24.896865)" /><g
     id="g31"
     transform="matrix(0.86534665,0,0,0.86534665,24.897,24.896865)" /><g
     id="g33"
     transform="matrix(0.86534665,0,0,0.86534665,24.897,24.896865)" /><g
     id="g35"
     transform="matrix(0.86534665,0,0,0.86534665,24.897,24.896865)" /><g
     id="g37"
     transform="matrix(0.86534665,0,0,0.86534665,24.897,24.896865)" /><g
     id="g39"
     transform="matrix(0.86534665,0,0,0.86534665,24.897,24.896865)" /></svg>