<?xml version="1.0" encoding="iso-8859-1"?>
<!-- Generator: Adobe Illustrator 16.0.0, SVG Export Plug-In . SVG Version: 6.00 Build 0)  -->
<!DOCTYPE svg PUBLIC "-//W3C//DTD SVG 1.1//EN" "http://www.w3.org/Graphics/SVG/1.1/DTD/svg11.dtd">
<svg version="1.1" id="Capa_1" xmlns="http://www.w3.org/2000/svg" xmlns:xlink="http://www.w3.org/1999/xlink" x="0px" y="0px"
	 width="31.466px" height="31.465px" viewBox="0 0 31.466 31.465" style="enable-background:new 0 0 31.466 31.465;"
	 xml:space="preserve">
<g>
	<g>
		<path d="M30.221,7.01V5.028l-0.287-0.113c-0.099-0.037-2.427-0.942-5.535-0.942c-3.325,0-6.193,1.014-8.526,3.015
			c-2.331-2.001-5.199-3.015-8.526-3.015c-3.108,0-5.436,0.905-5.533,0.943L1.527,5.028v1.836C0.586,7.04,0,7.355,0,7.87
			c0,2.676,0,18.917,0,18.917h13.934c0.481,0.431,1.187,0.705,1.974,0.705s1.492-0.273,1.976-0.705h13.582c0,0,0-17.979,0-18.917
			C31.465,7.451,30.991,7.178,30.221,7.01z M15.724,25.296c-1.158-0.479-5.143-1.993-9.132-1.993c-1.576,0-2.973,0.242-4.163,0.719
			V5.654c0.693-0.232,2.587-0.779,4.917-0.779c3.063,0,5.695,0.927,7.847,2.734v10.964l0.531-0.584V25.296z M29.316,24.028
			c-1.278-0.514-2.746-0.772-4.371-0.772c-3.986,0-7.782,1.528-8.924,2.03v-7.297l0.531,0.584V7.609
			c2.15-1.807,4.783-2.734,7.846-2.734c2.324,0,4.223,0.548,4.918,0.779V24.028z"/>
		<path d="M9.769,8.651c2.135,0.41,3.59,1.197,3.615,1.21l0.354-0.638c-0.105-0.06-1.677-0.912-3.97-1.328L9.769,8.651L9.769,8.651z
			"/>
		<path d="M9.769,10.721c2.135,0.409,3.59,1.197,3.615,1.211l0.354-0.639c-0.105-0.06-1.677-0.912-3.97-1.327L9.769,10.721
			L9.769,10.721z"/>
		<path d="M9.769,12.666c2.135,0.41,3.59,1.197,3.615,1.211l0.354-0.639c-0.105-0.061-1.677-0.912-3.97-1.327L9.769,12.666
			L9.769,12.666z"/>
		<path d="M9.769,14.798c2.135,0.41,3.59,1.198,3.615,1.211l0.354-0.638c-0.105-0.06-1.677-0.913-3.97-1.328L9.769,14.798
			L9.769,14.798z"/>
		<path d="M4.216,16.192l0.188,0.707c4.705-1.246,8.938,1.063,8.98,1.086l0.354-0.639C13.558,17.245,9.212,14.869,4.216,16.192z"/>
		<path d="M4.216,18.221l0.188,0.707c4.705-1.248,8.938,1.061,8.98,1.085l0.354-0.638C13.558,19.272,9.212,16.898,4.216,18.221z"/>
		<path d="M4.216,20.255l0.188,0.707c4.705-1.249,8.938,1.062,8.98,1.084l0.354-0.638C13.558,21.306,9.212,18.931,4.216,20.255z"/>
		<path d="M18.577,9.916c0.044-0.023,4.276-2.332,8.979-1.084l0.188-0.707c-4.996-1.324-9.343,1.052-9.524,1.154L18.577,9.916z"/>
		<path d="M18.223,11.348l0.354,0.638c0.044-0.023,4.276-2.333,8.979-1.084l0.188-0.708C22.75,8.87,18.404,11.246,18.223,11.348z"/>
		<path d="M18.223,13.292l0.354,0.639c0.044-0.024,4.276-2.332,8.979-1.086l0.188-0.706C22.75,10.816,18.404,13.191,18.223,13.292z"
			/>
		<path d="M18.223,15.425l0.354,0.638c0.044-0.023,4.276-2.333,8.979-1.085l0.188-0.707C22.75,12.946,18.404,15.323,18.223,15.425z"
			/>
		<path d="M18.223,17.4l0.354,0.64c0.044-0.024,4.276-2.333,8.979-1.086l0.188-0.707C22.75,14.924,18.404,17.298,18.223,17.4z"/>
		<path d="M18.223,19.429l0.354,0.638c0.044-0.023,4.276-2.332,8.979-1.085l0.188-0.706C22.75,16.952,18.404,19.327,18.223,19.429z"
			/>
		<path d="M18.223,21.463l0.354,0.637c0.044-0.021,4.276-2.333,8.979-1.084l0.188-0.707C22.75,18.985,18.404,21.362,18.223,21.463z"
			/>
		<path d="M8.978,14.669V7.772c0,0-1.174-0.134-2.381-0.102c-1.205,0.033-2.381,0.4-2.381,0.4v6.896c0,0,0.983-0.291,2.251-0.383
			C7.733,14.491,8.978,14.669,8.978,14.669z"/>
	</g>
</g>
<g>
</g>
<g>
</g>
<g>
</g>
<g>
</g>
<g>
</g>
<g>
</g>
<g>
</g>
<g>
</g>
<g>
</g>
<g>
</g>
<g>
</g>
<g>
</g>
<g>
</g>
<g>
</g>
<g>
</g>
</svg>
