<?xml version="1.0" encoding="UTF-8" standalone="no"?>
<svg
   xmlns:dc="http://purl.org/dc/elements/1.1/"
   xmlns:cc="http://creativecommons.org/ns#"
   xmlns:rdf="http://www.w3.org/1999/02/22-rdf-syntax-ns#"
   xmlns:svg="http://www.w3.org/2000/svg"
   xmlns="http://www.w3.org/2000/svg"
   xmlns:sodipodi="http://sodipodi.sourceforge.net/DTD/sodipodi-0.dtd"
   xmlns:inkscape="http://www.inkscape.org/namespaces/inkscape"
   version="1.1"
   x="0px"
   y="0px"
   viewBox="0 0 64 64"
   enable-background="new 0 0 100 100"
   xml:space="preserve"
   id="svg2"
   inkscape:version="0.91 r13725"
   sodipodi:docname="podcast_logo.svg"
   width="64"
   height="64"><metadata
     id="metadata20"><rdf:RDF><cc:Work
         rdf:about=""><dc:format>image/svg+xml</dc:format><dc:type
           rdf:resource="http://purl.org/dc/dcmitype/StillImage" /><dc:title></dc:title></cc:Work></rdf:RDF></metadata><defs
     id="defs18" /><sodipodi:namedview
     pagecolor="#ffffff"
     bordercolor="#666666"
     borderopacity="1"
     objecttolerance="10"
     gridtolerance="10"
     guidetolerance="10"
     inkscape:pageopacity="0"
     inkscape:pageshadow="2"
     inkscape:window-width="1920"
     inkscape:window-height="1131"
     id="namedview16"
     showgrid="false"
     inkscape:zoom="1.888"
     inkscape:cx="-24.237648"
     inkscape:cy="24.195573"
     inkscape:window-x="0"
     inkscape:window-y="30"
     inkscape:window-maximized="1"
     inkscape:current-layer="svg2" /><g
     id="g4"
     transform="matrix(0.70717514,0,0,0.70718232,-3.3233983,-3.3944751)"><path
       d="m 50,4.8 c -6.6,0 -11.9,5.3 -11.9,11.9 l 0,21.2 23.9,0 0,-21.1 C 61.9,10.2 56.6,4.8 50,4.8 Z"
       id="path6"
       inkscape:connector-curvature="0" /><path
       d="m 50,67.3 c 6.6,0 11.9,-5.3 11.9,-11.9 l 0,-12.5 -23.9,0 0,12.5 c 0.1,6.6 5.4,11.9 12,11.9 z"
       id="path8"
       inkscape:connector-curvature="0" /><path
       d="m 70.6,48.3 c 0,8.9 0,10.7 -0.1,11 -0.4,3.8 -2.1,7.4 -4.8,10.1 -3.1,3.1 -7.3,4.9 -11.8,4.9 l -7.9,0 c -4.4,0 -8.6,-1.7 -11.8,-4.9 -2.6,-2.6 -4.3,-6.2 -4.8,-10 0,-0.3 0,-2.1 -0.1,-11.1 l -5.9,0 c 0,11.1 0.1,11.4 0.1,11.7 0.6,5.1 2.9,10 6.5,13.6 4.3,4.3 9.9,6.6 15.9,6.6 l 0.2,0 0,7.6 -13.7,0 0,7.5 35.1,0 0,-7.5 -13.7,0 0,-7.6 0.2,0 c 6,0 11.7,-2.3 15.9,-6.6 3.7,-3.7 6,-8.6 6.5,-13.8 0,-0.2 0.1,-0.6 0.1,-11.5 l -5.9,0 z"
       id="path10"
       inkscape:connector-curvature="0" /></g></svg>