<?xml version="1.0" encoding="UTF-8" standalone="no"?>
<!-- Generator: Adobe Illustrator 15.0.0, SVG Export Plug-In . SVG Version: 6.00 Build 0)  -->

<svg
   xmlns:dc="http://purl.org/dc/elements/1.1/"
   xmlns:cc="http://creativecommons.org/ns#"
   xmlns:rdf="http://www.w3.org/1999/02/22-rdf-syntax-ns#"
   xmlns:svg="http://www.w3.org/2000/svg"
   xmlns="http://www.w3.org/2000/svg"
   xmlns:sodipodi="http://sodipodi.sourceforge.net/DTD/sodipodi-0.dtd"
   xmlns:inkscape="http://www.inkscape.org/namespaces/inkscape"
   version="1.1"
   id="Calque_1"
   x="0px"
   y="0px"
   width="64"
   height="64"
   viewBox="0 0 64 64"
   enable-background="new 0 0 200 237"
   xml:space="preserve"
   inkscape:version="0.91 r13725"
   sodipodi:docname="Logo-wallabag-svg.svg"><metadata
     id="metadata35"><rdf:RDF><cc:Work
         rdf:about=""><dc:format>image/svg+xml</dc:format><dc:type
           rdf:resource="http://purl.org/dc/dcmitype/StillImage" /><dc:title></dc:title></cc:Work></rdf:RDF></metadata><defs
     id="defs33" /><sodipodi:namedview
     pagecolor="#ffffff"
     bordercolor="#666666"
     borderopacity="1"
     objecttolerance="10"
     gridtolerance="10"
     guidetolerance="10"
     inkscape:pageopacity="0"
     inkscape:pageshadow="2"
     inkscape:window-width="1920"
     inkscape:window-height="1131"
     id="namedview31"
     showgrid="false"
     inkscape:zoom="11.265971"
     inkscape:cx="25.693329"
     inkscape:cy="31.063855"
     inkscape:window-x="0"
     inkscape:window-y="30"
     inkscape:window-maximized="1"
     inkscape:current-layer="g3" /><g
     id="g3"
     transform="translate(0,-173)"><g
       id="g5"
       transform="matrix(0.35643422,0,0,0.35643562,3.9993326,175.00027)"><path
         d="m 78.59,49.445 c 2.014,-1.237 12.868,-7.004 30.379,0.224 18.012,7.434 29.188,0.978 30.574,0.099 -4.354,-7.159 -9.533,-13.389 -15.259,-17.578 0.381,-0.104 0.771,-0.209 1.183,-0.332 7.594,-2.196 9.522,-8.625 9.929,-14.131 0.458,-6.245 0.776,-6.341 2.133,-11.96 1.302,-5.396 -0.149,-6.476 -1.488,-5.386 -0.722,0.586 -6.998,2.037 -10.721,4.94 -6.011,4.69 -9.716,13.608 -11.396,18.538 -0.032,0.076 -0.258,0.761 -0.334,0.999 -0.783,1.889 -2.342,1.883 -2.342,1.883 l 0,0.001 c -0.755,-0.083 -1.515,-0.126 -2.279,-0.126 -0.682,0 -1.359,0.037 -2.037,0.102 -0.015,0.003 -0.023,0 -0.039,0.001 -1.993,0.293 -3.09,-2.14 -3.318,-2.72 C 101.247,17.312 94.982,4.127 80.904,0.58 c 0,0 -2.557,-1.959 -1.777,1.354 0.74,3.166 2.273,6.366 1.933,11.02 -0.156,2.148 -1.489,13.164 8.636,18.896 0.961,0.544 1.817,1.002 2.585,1.387 -5.097,4.082 -9.729,9.761 -13.691,16.208 z"
         id="path7"
         inkscape:connector-curvature="0" /><path
         d="m 145.06,150.186 c -12.406,-7.687 -16.582,-10.39 -16.321,-13.33 0,0 0.003,-0.478 0.126,-1.207 0.3,-1.56 1.254,-4.221 4.294,-5.738 0.101,-0.049 0.185,-0.105 0.263,-0.162 9.666,-5.61 16.729,-14.642 19.22,-25.917 -2.511,6.228 -21.098,11.068 -43.675,11.068 -22.569,0 -41.161,-4.84 -43.669,-11.068 0.558,2.531 1.353,4.944 2.35,7.238 0.839,4.722 1.968,15.838 -3.37,25.569 -4.704,8.571 -27.923,20.258 -62.382,13.548 0,0 -1.383,-0.964 -1.8,-0.17 -0.618,1.174 1.912,2.123 4.519,2.811 23.991,6.353 60.202,3.769 71.574,-5.601 5.188,-4.271 7.19,-10.026 7.699,-16.22 l 0.004,0.01 c 0,0 0.139,-1.622 2.167,-0.403 0.581,0.35 2.678,1.716 3.013,3.259 0.292,2.197 0.312,4.895 -0.822,6.785 -1.622,2.701 -1.64,3.09 0.495,4.616 1.311,0.936 6.666,4.871 14.116,9.347 0.02,0.013 0.029,0.023 0.048,0.034 1.577,0.949 3.767,3.274 3.767,3.274 l 0,0 c 3.354,3.881 10.654,11.691 13.832,10.222 1.501,-0.694 -0.064,-3.823 -0.064,-3.823 0,0 2.496,3.241 3.837,2.137 1.019,-0.843 -0.597,-4.069 -0.597,-4.069 0,0 2.179,1.889 3.475,1.189 1.586,-0.855 -0.234,-5.817 -12.705,-13.397 -12.475,-7.585 -15.856,-8.748 -16.154,-12.134 0,0 -0.005,-0.171 0.005,-0.462 0.098,-0.747 0.522,-2.327 2.335,-2.158 2.699,0.437 5.481,0.67 8.331,0.67 3.262,0 6.437,-0.3 9.5,-0.871 l 10e-4,0.005 c 0,0 0.159,-0.032 0.206,-0.04 0.358,-0.045 1.057,-0.021 1.06,0.846 -0.113,1.101 -0.418,2.207 -1.065,3.176 -1.825,2.733 -1.225,3.107 0.68,4.864 1.177,1.083 6.569,5.827 13.957,10.417 0.014,0.011 0.021,0.021 0.039,0.03 1.575,0.947 4.299,3.551 4.299,3.551 l 0,-0.001 c 3.061,3.107 8.689,8.314 11.758,8.001 2.073,-0.213 0.385,-3.785 0.385,-3.785 0,0 2.62,2.528 3.905,1.785 1.439,-0.831 -0.596,-3.473 -0.596,-3.473 0,0 1.687,0.893 2.879,0.596 1.189,-0.301 1.485,-3.336 -10.919,-11.019 z"
         id="path9"
         inkscape:connector-curvature="0" /></g><path
       d="m 50.76279,197.57298 c -0.530374,0 -0.971283,0.15968 -1.30847,0.47513 -0.341108,0.31936 -0.513622,0.68792 -0.513622,1.09532 l 0,7.21426 c 0,0.96844 -0.171445,1.68166 -0.510058,2.1215 -0.327206,0.42523 -0.849739,0.63196 -1.597538,0.63196 -0.764908,0 -1.286371,-0.2053 -1.59433,-0.62697 -0.32186,-0.44019 -0.48475,-1.1552 -0.48475,-2.12613 l 0,-7.24313 c 0,-0.49331 -0.224554,-0.89679 -0.650493,-1.16662 -0.578849,-0.36463 -1.154846,-0.49687 -1.855597,-0.26376 -0.21386,0.0716 -0.414889,0.16432 -0.598452,0.2766 -0.195326,0.11869 -0.360356,0.26804 -0.491167,0.44233 -0.144712,0.1939 -0.218137,0.40491 -0.218137,0.62697 l 0,7.32689 c 0,0.96986 -0.162891,1.68523 -0.484751,2.12579 -0.309028,0.42237 -0.830492,0.62768 -1.59433,0.62768 -0.765977,0 -1.292787,-0.20638 -1.61037,-0.62947 -0.330059,-0.4402 -0.497582,-1.15485 -0.497582,-2.12364 l 0,-7.21426 c 0,-0.40776 -0.172514,-0.77631 -0.514335,-1.09532 -0.337544,-0.31509 -0.787007,-0.47513 -1.335916,-0.47513 -0.565304,0 -1.031877,0.15825 -1.386528,0.46942 -0.36392,0.31937 -0.548909,0.69006 -0.548909,1.10103 l 0,7.10198 c 0,0.89323 0.08733,1.73834 0.258771,2.51073 0.176078,0.78951 0.483681,1.48278 0.914253,2.06056 0.434851,0.58348 1.025105,1.044 1.754726,1.37049 0.722137,0.32151 1.62534,0.48476 2.684663,0.48476 1.103877,0 2.028467,-0.20495 2.747751,-0.60808 0.603087,-0.33862 1.111006,-0.7838 1.514489,-1.3263 0.389227,0.5425 0.885383,0.98768 1.480271,1.32558 0.709662,0.40385 1.648866,0.6088 2.790524,0.6088 1.059679,0 1.958607,-0.16361 2.672544,-0.48583 0.719284,-0.32613 1.304193,-0.78665 1.739756,-1.36942 0.431285,-0.57957 0.738888,-1.27283 0.913896,-2.06056 0.171446,-0.77239 0.258772,-1.6175 0.258772,-2.51073 l 0,-7.10233 c 0,-0.40919 -0.179286,-0.77882 -0.531444,-1.09854 -0.346097,-0.31295 -0.818372,-0.47156 -1.403637,-0.47156 z"
       id="path11"
       inkscape:connector-curvature="0" /></g></svg>