<?xml version="1.0" encoding="UTF-8" standalone="no"?>
<!-- Generator: Adobe Illustrator 16.0.0, SVG Export Plug-In . SVG Version: 6.00 Build 0)  -->

<svg
   xmlns:dc="http://purl.org/dc/elements/1.1/"
   xmlns:cc="http://creativecommons.org/ns#"
   xmlns:rdf="http://www.w3.org/1999/02/22-rdf-syntax-ns#"
   xmlns:svg="http://www.w3.org/2000/svg"
   xmlns="http://www.w3.org/2000/svg"
   xmlns:sodipodi="http://sodipodi.sourceforge.net/DTD/sodipodi-0.dtd"
   xmlns:inkscape="http://www.inkscape.org/namespaces/inkscape"
   version="1.1"
   id="Capa_1"
   x="0px"
   y="0px"
   width="32"
   height="32"
   viewBox="0 0 32 31.999999"
   xml:space="preserve"
   inkscape:version="0.48.4 r9939"
   sodipodi:docname="instapaper.svg"><metadata
     id="metadata40"><rdf:RDF><cc:Work
         rdf:about=""><dc:format>image/svg+xml</dc:format><dc:type
           rdf:resource="http://purl.org/dc/dcmitype/StillImage" /></cc:Work></rdf:RDF></metadata><defs
     id="defs38" /><sodipodi:namedview
     pagecolor="#ffffff"
     bordercolor="#666666"
     borderopacity="1"
     objecttolerance="10"
     gridtolerance="10"
     guidetolerance="10"
     inkscape:pageopacity="0"
     inkscape:pageshadow="2"
     inkscape:window-width="1920"
     inkscape:window-height="1145"
     id="namedview36"
     showgrid="false"
     showguides="true"
     inkscape:guide-bbox="true"
     inkscape:zoom="17.557972"
     inkscape:cx="3.9348996"
     inkscape:cy="22.994864"
     inkscape:window-x="0"
     inkscape:window-y="30"
     inkscape:window-maximized="1"
     inkscape:current-layer="Capa_1" /><g
     id="g3"
     transform="matrix(0.07439802,0,0,0.07439802,0.11114776,-2.46438e-6)"><path
       id="Instapaper"
       d="m 310.641,418.049 c -26.285,-1.891 -43.329,-5.825 -51.104,-11.836 -7.775,-5.983 -11.663,-21.524 -11.663,-46.559 V 70.473 c 0,-23.915 3.888,-39.304 11.663,-46.186 7.775,-6.882 24.819,-10.958 51.104,-12.23 V 0 H 119.477 v 12.058 c 26.285,1.271 43.317,5.353 51.111,12.23 7.783,6.877 11.668,22.271 11.668,46.186 v 289.182 c 0,25.034 -3.885,40.575 -11.668,46.559 -7.794,6.011 -24.827,9.94 -51.111,11.836 v 12.068 h 191.164 v -12.07 z"
       inkscape:connector-curvature="0" /></g><g
     id="g6"
     transform="translate(0,-398.11801)" /><g
     id="g8"
     transform="translate(0,-398.11801)" /><g
     id="g10"
     transform="translate(0,-398.11801)" /><g
     id="g12"
     transform="translate(0,-398.11801)" /><g
     id="g14"
     transform="translate(0,-398.11801)" /><g
     id="g16"
     transform="translate(0,-398.11801)" /><g
     id="g18"
     transform="translate(0,-398.11801)" /><g
     id="g20"
     transform="translate(0,-398.11801)" /><g
     id="g22"
     transform="translate(0,-398.11801)" /><g
     id="g24"
     transform="translate(0,-398.11801)" /><g
     id="g26"
     transform="translate(0,-398.11801)" /><g
     id="g28"
     transform="translate(0,-398.11801)" /><g
     id="g30"
     transform="translate(0,-398.11801)" /><g
     id="g32"
     transform="translate(0,-398.11801)" /><g
     id="g34"
     transform="translate(0,-398.11801)" /></svg>