<?xml version="1.0" encoding="UTF-8" standalone="no"?>
<svg
   xmlns:dc="http://purl.org/dc/elements/1.1/"
   xmlns:cc="http://creativecommons.org/ns#"
   xmlns:rdf="http://www.w3.org/1999/02/22-rdf-syntax-ns#"
   xmlns:svg="http://www.w3.org/2000/svg"
   xmlns="http://www.w3.org/2000/svg"
   xmlns:sodipodi="http://sodipodi.sourceforge.net/DTD/sodipodi-0.dtd"
   xmlns:inkscape="http://www.inkscape.org/namespaces/inkscape"
   version="1.1"
   x="0px"
   y="0px"
   viewBox="0 0 64 64"
   enable-background="new 0 0 100 100"
   xml:space="preserve"
   id="svg2"
   inkscape:version="0.91 r13725"
   sodipodi:docname="noun_110099_cc.svg"
   width="64"
   height="64"><metadata
     id="metadata36"><rdf:RDF><cc:Work
         rdf:about=""><dc:format>image/svg+xml</dc:format><dc:type
           rdf:resource="http://purl.org/dc/dcmitype/StillImage" /><dc:title></dc:title></cc:Work></rdf:RDF></metadata><defs
     id="defs34" /><sodipodi:namedview
     pagecolor="#ffffff"
     bordercolor="#666666"
     borderopacity="1"
     objecttolerance="10"
     gridtolerance="10"
     guidetolerance="10"
     inkscape:pageopacity="0"
     inkscape:pageshadow="2"
     inkscape:window-width="1920"
     inkscape:window-height="1131"
     id="namedview32"
     showgrid="false"
     inkscape:zoom="5.3400704"
     inkscape:cx="36.526465"
     inkscape:cy="54.308683"
     inkscape:window-x="0"
     inkscape:window-y="30"
     inkscape:window-maximized="1"
     inkscape:current-layer="svg2" /><g
     enable-background="new    "
     id="g4"
     transform="matrix(0.67415152,0,0,0.6741573,-1.4605758,-2.0449435)"><g
       id="g6"><g
         id="g8"><path
           d="M 78,6 22,6 c -2.761,0 -5,2.238 -5,5 l 0,79 c 0,2.762 2.239,5 5,5 l 56,0 c 2.762,0 5,-2.238 5,-5 L 83,11 C 83,8.238 80.762,6 78,6 Z M 28.5,89 C 25.462,89 23,86.537 23,83.5 23,80.463 25.462,78 28.5,78 31.538,78 34,80.463 34,83.5 34,86.537 31.538,89 28.5,89 Z M 70,68 c 3,3 0,6 0,6 l -4,3 c -3,2 -5,-1 -5,-1 L 51.719,63.935 C 51.15,63.973 50.578,64 50,64 36.193,64 25,52.807 25,39 25,25.193 36.193,14 50,14 63.807,14 75,25.193 75,39 75,48.031 70.21,55.942 63.033,60.336 L 70,68 Z"
           id="path10"
           inkscape:connector-curvature="0"
           style="clip-rule:evenodd;fill-rule:evenodd" /></g></g></g><g
     enable-background="new    "
     id="g12"
     transform="matrix(0.67415152,0,0,0.6741573,-1.4605758,-2.0449435)"><g
       id="g14"><g
         id="g16"><path
           d="M 68,69 C 67,68 51,52 51,52 c 0,0 -2,-1 -3,0 -1,1 0,3 0,3 l 14,19 c 0,0 2,2 4,1 2,-1 3,-3 3,-3 0,0 0,-2 -1,-3 z"
           id="path18"
           inkscape:connector-curvature="0" /></g></g></g><g
     enable-background="new    "
     id="g20"
     transform="matrix(0.67415152,0,0,0.6741573,-1.4605758,-2.0449435)"><g
       id="g22"><g
         id="g24"><circle
           cx="50.5"
           cy="39.5"
           r="7.5"
           id="circle26" /></g></g></g></svg>