<?xml version="1.0" encoding="UTF-8" standalone="no"?>
<!-- Created with Inkscape (http://www.inkscape.org/) -->

<svg
   xmlns:dc="http://purl.org/dc/elements/1.1/"
   xmlns:cc="http://creativecommons.org/ns#"
   xmlns:rdf="http://www.w3.org/1999/02/22-rdf-syntax-ns#"
   xmlns:svg="http://www.w3.org/2000/svg"
   xmlns="http://www.w3.org/2000/svg"
   xmlns:sodipodi="http://sodipodi.sourceforge.net/DTD/sodipodi-0.dtd"
   xmlns:inkscape="http://www.inkscape.org/namespaces/inkscape"
   version="1.1"
   width="24"
   height="24"
   id="svg4082"
   inkscape:version="0.48.4 r9939"
   sodipodi:docname="feed-share-symbolic.svg">
  <sodipodi:namedview
     pagecolor="#ffffff"
     bordercolor="#666666"
     borderopacity="1"
     objecttolerance="10"
     gridtolerance="10"
     guidetolerance="10"
     inkscape:pageopacity="0"
     inkscape:pageshadow="2"
     inkscape:window-width="1920"
     inkscape:window-height="1145"
     id="namedview54"
     showgrid="false"
     inkscape:zoom="20.09375"
     inkscape:cx="5.2552523"
     inkscape:cy="10.382784"
     inkscape:window-x="0"
     inkscape:window-y="30"
     inkscape:window-maximized="1"
     inkscape:current-layer="svg4082" />
  <defs
     id="defs4084" />
  <metadata
     id="metadata4087">
    <rdf:RDF>
      <cc:Work
         rdf:about="">
        <dc:format>image/svg+xml</dc:format>
        <dc:type
           rdf:resource="http://purl.org/dc/dcmitype/StillImage" />
        <dc:title />
      </cc:Work>
    </rdf:RDF>
  </metadata>
  <path
     d="m 14.042559,2.913044 c -2.27337,0 -4.242192,1.3302045 -5.218086,3.260877 C 8.1919605,5.7632705 7.4432055,5.5217585 6.6383025,5.5217585 c -2.256135,0 -4.0851015,1.8686855 -4.0851015,4.1739095 0,0.366496 0.05673,0.721069 0.14361,1.059757 C 1.0673535,11.878345 0,13.788697 0,15.956498 c 0,3.468517 2.732937,6.260894 6.127656,6.260894 l 11.744693,0 C 21.26707,22.217392 24,19.425015 24,15.956498 c 0,-2.769753 -1.750031,-5.104914 -4.180857,-5.934778 0.06595,-0.359972 0.09574,-0.72912 0.09574,-1.108658 0,-3.313743 -2.629124,-6.0000195 -5.872328,-6.0000195 z"
     id="rect4519"
     style="color:#000000;fill:#bebebe;fill-opacity:1;fill-rule:nonzero;stroke:none;stroke-width:1;marker:none;visibility:visible;display:inline;overflow:visible;enable-background:accumulate"
     inkscape:connector-curvature="0" />
</svg>
