<?xml version="1.0" encoding="UTF-8" standalone="no"?>
<svg
   xmlns:dc="http://purl.org/dc/elements/1.1/"
   xmlns:cc="http://creativecommons.org/ns#"
   xmlns:rdf="http://www.w3.org/1999/02/22-rdf-syntax-ns#"
   xmlns:svg="http://www.w3.org/2000/svg"
   xmlns="http://www.w3.org/2000/svg"
   xmlns:sodipodi="http://sodipodi.sourceforge.net/DTD/sodipodi-0.dtd"
   xmlns:inkscape="http://www.inkscape.org/namespaces/inkscape"
   version="1.1"
   width="16px"
   height="16px"
   id="svg2"
   inkscape:version="0.48.4 r9939"
   sodipodi:docname="arrow-down-hover.svg">
  <metadata
     id="metadata10">
    <rdf:RDF>
      <cc:Work
         rdf:about="">
        <dc:format>image/svg+xml</dc:format>
        <dc:type
           rdf:resource="http://purl.org/dc/dcmitype/StillImage" />
        <dc:title />
      </cc:Work>
    </rdf:RDF>
  </metadata>
  <defs
     id="defs8" />
  <sodipodi:namedview
     pagecolor="#ffffff"
     bordercolor="#666666"
     borderopacity="1"
     objecttolerance="10"
     gridtolerance="10"
     guidetolerance="10"
     inkscape:pageopacity="0"
     inkscape:pageshadow="2"
     inkscape:window-width="1304"
     inkscape:window-height="776"
     id="namedview6"
     showgrid="false"
     inkscape:zoom="83.4386"
     inkscape:cx="6.8415321"
     inkscape:cy="9.0028842"
     inkscape:window-x="229"
     inkscape:window-y="186"
     inkscape:window-maximized="0"
     inkscape:current-layer="svg2" />
  <path
     d="m 1.7907543,2.9999997 c -0.4864191,0 -0.92697701,0.1848906 -1.24574211,0.4997864 C 0.22624695,3.8144732 0,4.2495966 0,4.7300296 0,5.2104624 0.22624695,5.645586 0.54501219,5.9602731 L 7.3965939,12.726613 c 0.6228711,0.615121 1.2457422,0 1.2457422,0 L 15.493917,5.9602731 C 15.812682,5.645586 16,5.2104624 16,4.7300296 16,4.2495966 15.812682,3.8144732 15.493917,3.4997861 15.175151,3.1848903 14.734593,2.9999997 14.248175,2.9999997 c -0.486419,0 -0.926976,0.1848906 -1.245741,0.4997864 L 8.6423361,7.8056384 c -0.6228711,0.6151217 -0.6228711,0.6151217 -1.2457422,0 L 3.0364965,3.4997861 C 2.7177314,3.1848903 2.2771735,2.9999997 1.7907543,2.9999997 z"
     style="fill:#ffffff;fill-opacity:1;stroke:none"
     id="path4"
     inkscape:connector-curvature="0" />
</svg>
