<?xml version="1.0" encoding="UTF-8" standalone="no"?>
<!-- Created with Inkscape (http://www.inkscape.org/) -->

<svg
   xmlns:dc="http://purl.org/dc/elements/1.1/"
   xmlns:cc="http://creativecommons.org/ns#"
   xmlns:rdf="http://www.w3.org/1999/02/22-rdf-syntax-ns#"
   xmlns:svg="http://www.w3.org/2000/svg"
   xmlns="http://www.w3.org/2000/svg"
   xmlns:sodipodi="http://sodipodi.sourceforge.net/DTD/sodipodi-0.dtd"
   xmlns:inkscape="http://www.inkscape.org/namespaces/inkscape"
   id="svg2"
   version="1.1"
   inkscape:version="0.48.4 r9939"
   width="32"
   height="32"
   xml:space="preserve"
   sodipodi:docname="evernote.svg"><metadata
     id="metadata8"><rdf:RDF><cc:Work
         rdf:about=""><dc:format>image/svg+xml</dc:format><dc:type
           rdf:resource="http://purl.org/dc/dcmitype/StillImage" /><dc:title /></cc:Work></rdf:RDF></metadata><defs
     id="defs6" /><sodipodi:namedview
     pagecolor="#ffffff"
     bordercolor="#666666"
     borderopacity="1"
     objecttolerance="10"
     gridtolerance="10"
     guidetolerance="10"
     inkscape:pageopacity="0"
     inkscape:pageshadow="2"
     inkscape:window-width="1920"
     inkscape:window-height="1145"
     id="namedview4"
     showgrid="false"
     inkscape:zoom="21.666452"
     inkscape:cx="9.7469392"
     inkscape:cy="18.607874"
     inkscape:window-x="0"
     inkscape:window-y="30"
     inkscape:window-maximized="1"
     inkscape:current-layer="g12" /><g
     id="g10"
     inkscape:groupmode="layer"
     inkscape:label="ink_ext_XXXXXX"
     transform="matrix(1.25,0,0,-1.25,0,32)"><g
       id="g12"
       transform="scale(0.159509,0.159509)"><path
         d="m 111.88376,84.226965 c -2.1688,0.0759 -4.25465,-0.0609 -6.2002,-0.37375 0.54765,4.42145 2.3727,9.84725 8.83765,9.62 7.1564,-0.24625 8.1594,-7.01035 8.185,-11.592 -3.0178,1.3454 -6.75355,2.2028 -10.82245,2.34575 z m 30.60255,47.990055 c -1.1963,6.40495 -5.0044,9.5613 -8.44715,10.80215 -3.7141,1.34234 -11.24605,2.73319 -20.70935,3.84824 -7.61315,0.89665 -16.561496,0.8256 -21.966996,0.6584 -0.64865,4.4435 -3.7653,8.5027 -7.2526,9.9081 -9.29125,3.73975 -23.6469,2.836 -27.33275,1.803 -2.929,-0.8185 -6.1705,-2.4962 -7.9749,-5.08115 -1.21,-1.72665 -1.99275,-3.93915 -1.99895,-7.02975 0,-1.74915 0.049,-5.86969 0.0933,-9.53039 0.0445,-3.67265 0.0924,-6.957 0.0924,-6.9795 0,-3.2693 -2.65155,-5.9301 -5.93555,-5.93455 l -15.06445,0 c -3.2135,0 -5.668697,-0.5401 -7.544097,-1.39215 -1.87845,-0.85255 -3.2088,-2.0029 -4.21955,-3.3629 -2.01205,-2.70095 -2.36145,-6.03425 -2.353,-9.43595 0,0 0.0295,-2.77955 0.6993,-8.15945 0.55675,-4.162855 5.07105,-33.243905 9.359047,-42.088155 1.6627,-3.4414 2.77,-4.87465 6.0364,-6.3908 7.2774,-3.1158 23.90045,-6.58235 31.69155,-7.57475 7.7768,-0.99505 12.65765,-3.0868 15.56645,3.01205 0.01,0.015 0.5829,1.5175 1.371,3.7212 2.52535,7.6528 2.87705,14.44255 2.87705,19.356 0,0.49995 0.73295,0.5229 0.73295,0 0,-3.46875 -0.66235,-15.7447 8.6108,-19.03785 3.6607,-1.29865 11.254446,-2.4561 18.970796,-3.36025 6.97725,-0.8022 12.0403,-3.54775 12.0403,-21.44775 0,-10.890597 -2.28705,-12.383497 -14.24485,-12.383497 -9.693696,0 -13.387946,-0.2509 -13.387946,7.449797 0,6.22405 6.15565,5.57185 10.717846,5.57185 2.03775,0 0.5591,1.51595 0.5591,5.35565 0,3.81985 2.38855,6.02805 0.12885,6.0841 -15.775596,0.4342 -25.058496,0.018 -25.058496,-19.7121 0,-17.9114957 6.8546,-21.23754575 29.245196,-21.23754575 17.5557,0 23.74395,0.57485 30.9926,23.06634575 1.435,4.44005 4.90375,17.99015 7.00329,40.74085 1.32685,14.3852 -1.25185,57.802455 -3.29754,68.760755 z m -117.202746,-3.1603 c 0,0 0,0 0.01,0 l 15.0621,0 c 0.86305,0 1.5572,0.70295 1.5591,1.5594 0,0.006 -0.1827,12.9149 -0.1827,16.50504 l 0,0.0425 c 0,2.94855 0.6184,5.5189 1.6966,7.67315 l 0.51505,0.96725 c -0.0576,-0.01 -0.11535,-0.038 -0.1727,-0.0953 L 14.505067,126.68727 c -0.0574,-0.047 -0.0931,-0.10855 -0.10965,-0.17075 0.60535,0.2996 1.43305,0.7091 1.54995,0.7603 2.54865,1.1499 5.639197,1.78005 9.338397,1.78005"
         style="fill:#000000;fill-opacity:1;fill-rule:nonzero;stroke:none"
         id="path14"
         inkscape:connector-curvature="0" /></g></g></svg>