<?xml version="1.0" encoding="UTF-8" standalone="no"?>
<!-- Generator: Adobe Illustrator 16.0.0, SVG Export Plug-In . SVG Version: 6.00 Build 0)  -->

<svg
   xmlns:dc="http://purl.org/dc/elements/1.1/"
   xmlns:cc="http://creativecommons.org/ns#"
   xmlns:rdf="http://www.w3.org/1999/02/22-rdf-syntax-ns#"
   xmlns:svg="http://www.w3.org/2000/svg"
   xmlns="http://www.w3.org/2000/svg"
   xmlns:sodipodi="http://sodipodi.sourceforge.net/DTD/sodipodi-0.dtd"
   xmlns:inkscape="http://www.inkscape.org/namespaces/inkscape"
   id="Layer_1"
   xml:space="preserve"
   height="32"
   viewBox="0 0 31.999846 31.99969"
   width="32"
   version="1.1"
   y="0px"
   x="0px"
   enable-background="new 0 0 414.998 414.996"
   inkscape:version="0.48.4 r9939"
   sodipodi:docname="readability.svg"><metadata
     id="metadata3001"><rdf:RDF><cc:Work
         rdf:about=""><dc:format>image/svg+xml</dc:format><dc:type
           rdf:resource="http://purl.org/dc/dcmitype/StillImage" /></cc:Work></rdf:RDF></metadata><defs
     id="defs2999" /><sodipodi:namedview
     pagecolor="#ffffff"
     bordercolor="#666666"
     borderopacity="1"
     objecttolerance="10"
     gridtolerance="10"
     guidetolerance="10"
     inkscape:pageopacity="0"
     inkscape:pageshadow="2"
     inkscape:window-width="1920"
     inkscape:window-height="1145"
     id="namedview2997"
     showgrid="false"
     width="32px"
     inkscape:zoom="18.19759"
     inkscape:cx="19.649559"
     inkscape:cy="14.10742"
     inkscape:window-x="0"
     inkscape:window-y="30"
     inkscape:window-maximized="1"
     inkscape:current-layer="Layer_1" /><g
     clip-rule="evenodd"
     id="g2987"
     style="fill:#710004;fill-rule:evenodd;stroke:#710004"
     transform="matrix(0.09254882,0,0,0.09254882,-3.2698018,-3.6571435)"><path
       d="m 291.12,258.44 c -55.949,-35.995 -110.16,-36.275 -165.6,-0.553 -0.662,-3.392 -1.469,-6.266 -1.744,-9.19 -0.893,-9.509 -0.498,-19.295 -2.682,-28.481 -1.984,-8.356 -5.072,-17.546 -10.648,-23.652 -5.721,-6.265 -6.4,-11.604 -4.701,-18.73 16.262,-68.13 95.068,-101.48 155.21,-65.564 26.859,16.039 44.035,39.14 49.338,70.247 0.615,3.614 -0.832,9.01 -3.367,11.468 -8.088,7.831 -11.779,17.112 -12.637,27.986 -0.93,11.64 -2.02,23.28 -3.17,36.45 z"
       id="path2989"
       inkscape:connector-curvature="0" /><path
       d="m 207.37,311.24 c -21.648,-0.006 -43.32,-0.586 -64.938,0.256 -9.873,0.383 -13.012,-3.24 -13.184,-12.289 -0.123,-6.334 -0.584,-12.872 -2.295,-18.923 -3,-10.606 1.551,-16.693 10.143,-21.741 28.178,-16.552 58.775,-19.812 90.434,-16.367 19.807,2.157 38.686,7.505 55.141,19.605 4.855,3.567 7.256,7.329 6.266,13.608 -1.432,9.106 -2.328,18.321 -2.98,27.521 -0.455,6.51 -3.455,8.53 -9.812,8.448 -22.93,-0.29 -45.85,-0.11 -68.78,-0.12 z"
       id="path2991"
       inkscape:connector-curvature="0" /><path
       d="m 287.37,326.47 c 3.656,-33.902 7.016,-67.836 11.072,-101.69 2.547,-21.248 21.119,-37.659 41.564,-37.915 19.812,-0.249 36.279,14.025 39.672,34.39 3.145,18.878 -8.773,37.608 -29.139,43.594 -7.717,2.269 -11.623,6.308 -14.381,13.343 -4.998,12.745 -10.805,25.172 -16.039,37.827 -1.688,4.08 -3.689,8.455 -3.727,12.707 -0.096,12.023 -1.023,12.82 -19.682,12.48 -10.84,-0.2 -10.03,-7.38 -9.33,-14.73 z"
       id="path2993"
       inkscape:connector-curvature="0" /><path
       d="m 128.39,330.35 c -0.738,1.652 -1.959,8.598 -4.414,9.066 -7.209,1.375 -14.92,0.334 -22.396,-0.244 -0.83,-0.062 -1.457,-3.223 -2.109,-4.975 -7.84,-21.031 -15.35,-42.197 -23.84,-62.962 -1.246,-3.048 -6.939,-4.735 -10.9,-6.136 -18.076,-6.402 -29.225,-20.7 -29.314,-38.185 -0.088,-17.136 10.834,-32.513 26.916,-37.896 24.105,-8.069 50.814,8.156 54.473,34.872 4.69,34.35 7.59,68.95 11.58,106.46 z"
       id="path2995"
       inkscape:connector-curvature="0" /></g></svg>