<?xml version="1.0" encoding="UTF-8" standalone="no"?>
<svg
   xmlns:dc="http://purl.org/dc/elements/1.1/"
   xmlns:cc="http://creativecommons.org/ns#"
   xmlns:rdf="http://www.w3.org/1999/02/22-rdf-syntax-ns#"
   xmlns:svg="http://www.w3.org/2000/svg"
   xmlns="http://www.w3.org/2000/svg"
   xmlns:sodipodi="http://sodipodi.sourceforge.net/DTD/sodipodi-0.dtd"
   xmlns:inkscape="http://www.inkscape.org/namespaces/inkscape"
   version="1.1"
   width="24px"
   height="24px"
   id="svg2"
   inkscape:version="0.48.4 r9939"
   sodipodi:docname="rss.svg">
  <metadata
     id="metadata18">
    <rdf:RDF>
      <cc:Work
         rdf:about="">
        <dc:format>image/svg+xml</dc:format>
        <dc:type
           rdf:resource="http://purl.org/dc/dcmitype/StillImage" />
        <dc:title></dc:title>
      </cc:Work>
    </rdf:RDF>
  </metadata>
  <defs
     id="defs16" />
  <sodipodi:namedview
     pagecolor="#ffffff"
     bordercolor="#666666"
     borderopacity="1"
     objecttolerance="10"
     gridtolerance="10"
     guidetolerance="10"
     inkscape:pageopacity="0"
     inkscape:pageshadow="2"
     inkscape:window-width="1920"
     inkscape:window-height="1145"
     id="namedview14"
     showgrid="false"
     inkscape:zoom="78.666667"
     inkscape:cx="8.2158017"
     inkscape:cy="19.583977"
     inkscape:window-x="0"
     inkscape:window-y="30"
     inkscape:window-maximized="1"
     inkscape:current-layer="svg2" />
  <path
     d="M 3.9999999,0 20,0 c 4,0 4,4 4,4 l 0,16 c 0,0 0,4 -4,4 L 3.9999999,24 C 0,24 0,20 0,20 L 0,4 C 0,4 0,0 3.9999999,0 z"
     style="fill:#000000;fill-opacity:1;stroke:none"
     id="path4"
     inkscape:connector-curvature="0" />
  <g
     style="fill:#ffffff;fill-opacity:1;stroke:none"
     id="g6"
     transform="matrix(1.3333333,0,0,1.3333334,-3.9999999,-4)">
    <path
       d="m 7,10 c -0.3455849,0 -1,0 -1,0 -1,0 -1,1 -1,1 l 0,1 c 0,0 0,1 1,1 0,0 0.6350347,0 1,0 2.209139,0 4,1.790861 4,4 0,0.364965 0,1 0,1 0,1 1,1 1,1 l 1,0 c 0,0 1,0 1,-1 0,0 0,0 0,-1 0,-3.865993 -3.134007,-7 -7,-7 z"
       id="path8"
       inkscape:connector-curvature="0" />
    <path
       d="M 7,5 C 6.6565945,5 6,5 6,5 5,5 5,6 5,6 l 0,1 c 0,0 0,1 1,1 0,0 0.6554022,0 1,0 4.970563,0 9,4.029437 9,9 0,0.344598 0,1 0,1 0,1 1,1 1,1 l 1,0 c 0,0 1,0 1,-1 0,0 0,-0.656595 0,-1 C 19,10.372583 13.627417,5 7,5 z"
       id="path10"
       inkscape:connector-curvature="0" />
    <path
       d="m 9,17 a 2,2 0 1 1 -4,0 2,2 0 1 1 4,0 z"
       id="path12"
       inkscape:connector-curvature="0" />
  </g>
</svg>
