<?xml version="1.0" encoding="UTF-8" standalone="no"?>
<!-- Created with Inkscape (http://www.inkscape.org/) -->

<svg
   xmlns:dc="http://purl.org/dc/elements/1.1/"
   xmlns:cc="http://creativecommons.org/ns#"
   xmlns:rdf="http://www.w3.org/1999/02/22-rdf-syntax-ns#"
   xmlns:svg="http://www.w3.org/2000/svg"
   xmlns="http://www.w3.org/2000/svg"
   xmlns:sodipodi="http://sodipodi.sourceforge.net/DTD/sodipodi-0.dtd"
   xmlns:inkscape="http://www.inkscape.org/namespaces/inkscape"
   width="24"
   height="24"
   id="svg2"
   version="1.1"
   inkscape:version="0.91 r13725"
   sodipodi:docname="fr-gpl-symbolic.svg">
  <defs
     id="defs4">
    <inkscape:perspective
       sodipodi:type="inkscape:persp3d"
       inkscape:vp_x="0 : 128 : 1"
       inkscape:vp_y="0 : 1000 : 0"
       inkscape:vp_z="256 : 128 : 1"
       inkscape:persp3d-origin="128 : 85.333333 : 1"
       id="perspective2855" />
  </defs>
  <sodipodi:namedview
     id="base"
     pagecolor="#ffffff"
     bordercolor="#666666"
     borderopacity="1.0"
     inkscape:pageopacity="0.0"
     inkscape:pageshadow="2"
     inkscape:zoom="7.9195959"
     inkscape:cx="14.301458"
     inkscape:cy="12.461454"
     inkscape:document-units="px"
     inkscape:current-layer="text3675"
     showgrid="false"
     inkscape:window-width="1201"
     inkscape:window-height="642"
     inkscape:window-x="428"
     inkscape:window-y="151"
     inkscape:window-maximized="0" />
  <metadata
     id="metadata7">
    <rdf:RDF>
      <cc:Work
         rdf:about="">
        <dc:format>image/svg+xml</dc:format>
        <dc:type
           rdf:resource="http://purl.org/dc/dcmitype/StillImage" />
        <dc:title />
      </cc:Work>
    </rdf:RDF>
  </metadata>
  <g
     inkscape:label="Layer 1"
     inkscape:groupmode="layer"
     id="layer1"
     transform="translate(0,-1028.3622)">
    <g
       transform="scale(0.85506276,1.1695048)"
       style="font-style:normal;font-variant:normal;font-weight:normal;font-stretch:normal;font-size:8.25619698px;font-family:Arial;-inkscape-font-specification:Arial;fill:#bebebe;fill-opacity:1;stroke:none"
       id="text3675">
      <path
         d="m 8.3288449,889.93425 0,-1.22957 2.8219421,0 0,2.5196 q -0.8103,0.55229 -1.4351591,0.75386 -0.6208273,0.19753 -1.4754727,0.19753 -1.0521813,0 -1.7173534,-0.35879 -0.6611408,-0.35879 -1.0279933,-1.0683 -0.3628212,-0.70952 -0.3628212,-1.62867 0,-0.96752 0.3991033,-1.68107 0.3991033,-0.71758 1.1690904,-1.08846 0.6006706,-0.28623 1.6165698,-0.28623 0.9796171,0 1.4633787,0.17738 0.4877925,0.17738 0.8062695,0.5523 0.322507,0.37088 0.483761,0.94333 l -1.761698,0.31445 Q 9.1996156,887.717 8.9375781,887.53963 8.679572,887.36225 8.2764374,887.36225 q -0.6006706,0 -0.9594604,0.41926 -0.3547585,0.41523 -0.3547585,1.31825 0,0.95946 0.3587898,1.37065 0.3628212,0.4112 1.0078366,0.4112 0.3063823,0 0.5845451,-0.0887 0.2781629,-0.0887 0.6369527,-0.30235 l 0,-0.55632 -1.2214978,0 z"
         style="font-style:normal;font-variant:normal;font-weight:bold;font-stretch:normal;font-family:'Arial Black';-inkscape-font-specification:'Arial Black, Bold';fill:#bebebe;fill-opacity:1"
         id="path4138" />
      <path
         d="m 12.235219,886.16494 3.035604,0 q 0.991711,0 1.483535,0.47166 0.495856,0.47167 0.495856,1.34244 0,0.89496 -0.540201,1.39888 -0.536169,0.50392 -1.640758,0.50392 l -0.999773,0 0,2.19305 -1.834263,0 0,-5.90995 z m 1.834263,2.51959 0.447479,0 q 0.528106,0 0.741768,-0.18141 0.213661,-0.18544 0.213661,-0.47167 0,-0.27816 -0.185442,-0.47167 -0.185442,-0.1935 -0.697423,-0.1935 l -0.520043,0 0,1.31825 z"
         style="font-style:normal;font-variant:normal;font-weight:bold;font-stretch:normal;font-family:'Arial Black';-inkscape-font-specification:'Arial Black, Bold';fill:#bebebe;fill-opacity:1"
         id="path4140" />
      <path
         d="m 18.209674,886.16494 1.8262,0 0,4.45463 2.850162,0 0,1.45532 -4.676362,0 0,-5.90995 z"
         style="font-style:normal;font-variant:normal;font-weight:bold;font-stretch:normal;font-family:'Arial Black';-inkscape-font-specification:'Arial Black, Bold';fill:#bebebe;fill-opacity:1"
         id="path4142" />
    </g>
    <path
       style="opacity:1;fill:#bebebe;fill-opacity:1;stroke:none;stroke-width:0.68699998;stroke-linejoin:miter;stroke-miterlimit:4;stroke-dasharray:none;stroke-dashoffset:0;stroke-opacity:1"
       d="m 12,1028.3622 a 12,12 0 0 0 -12,12 12,12 0 0 0 12,12 12,12 0 0 0 12,-12 12,12 0 0 0 -12,-12 z m 0,2.5 a 9.5,9.5 0 0 1 9.5,9.5 9.5,9.5 0 0 1 -9.5,9.5 9.5,9.5 0 0 1 -9.5,-9.5 9.5,9.5 0 0 1 9.5,-9.5 z"
       id="path4137"
       inkscape:connector-curvature="0" />
  </g>
</svg>
