<?xml version="1.0" encoding="UTF-8" standalone="no"?>
<svg
   xmlns:dc="http://purl.org/dc/elements/1.1/"
   xmlns:cc="http://creativecommons.org/ns#"
   xmlns:rdf="http://www.w3.org/1999/02/22-rdf-syntax-ns#"
   xmlns:svg="http://www.w3.org/2000/svg"
   xmlns="http://www.w3.org/2000/svg"
   xmlns:sodipodi="http://sodipodi.sourceforge.net/DTD/sodipodi-0.dtd"
   xmlns:inkscape="http://www.inkscape.org/namespaces/inkscape"
   version="1.1"
   viewBox="0 0 24 24"
   x="0px"
   y="0px"
   id="svg2"
   inkscape:version="0.91 r13725"
   sodipodi:docname="website.svg"
   width="24"
   height="24">
  <metadata
     id="metadata14">
    <rdf:RDF>
      <cc:Work
         rdf:about="">
        <dc:format>image/svg+xml</dc:format>
        <dc:type
           rdf:resource="http://purl.org/dc/dcmitype/StillImage" />
        <dc:title />
      </cc:Work>
    </rdf:RDF>
  </metadata>
  <defs
     id="defs12" />
  <sodipodi:namedview
     pagecolor="#ffffff"
     bordercolor="#666666"
     borderopacity="1"
     objecttolerance="10"
     gridtolerance="10"
     guidetolerance="10"
     inkscape:pageopacity="0"
     inkscape:pageshadow="2"
     inkscape:window-width="1591"
     inkscape:window-height="790"
     id="namedview10"
     showgrid="false"
     inkscape:zoom="7.8666667"
     inkscape:cx="-19.588983"
     inkscape:cy="15"
     inkscape:window-x="0"
     inkscape:window-y="30"
     inkscape:window-maximized="0"
     inkscape:current-layer="svg2" />
  <path
     d="M 12,24 C 5.3724,24 0,18.6276 0,12 0,5.3724 5.3724,0 12,0 18.6276,0 24,5.3724 24,12 24,18.6276 18.6276,24 12,24 Z M 3.804,12.12 C 3.4476,11.5524 3.1572,10.896 2.964,10.2 2.9232,9.948 2.9064,9.7176 2.9064,9.4836 c 0,-0.234 0.0168,-0.4644 0.048,-0.69 -0.3528,0.9792 -0.5556,2.0808 -0.5556,3.2292 0,4.4592 3.0528,8.2056 7.182,9.2628 0.0948,-0.1548 0.1104,-0.3504 0.1104,-0.5496 0,-0.5496 -0.1224,-1.0704 -0.342,-1.5384 C 8.9088,18.6936 8.5272,18.0912 8.2368,17.4384 8.0868,16.74 8.6508,16.1832 8.5308,15.6528 8.1612,15.2844 7.7124,14.994 7.212,14.8128 6.78,14.5272 6.3144,14.2692 5.8248,14.058 4.8984,13.65 4.2108,12.978 3.8124,12.1428 Z M 16.944,3.7848 C 16.8936,3.9612 16.8156,4.1136 16.7136,4.248 16.212,4.6044 15.6,4.7472 15.108,5.1192 c -0.312,0.24 -0.528,0.6852 -0.828,0.8976 -0.708,0.4968 -1.14,0.24 -1.188,-0.762 0.0996,-0.732 0.156,-1.578 0.156,-2.4372 0,-0.0216 0,-0.0444 0,-0.066 -0.0024,-0.036 -0.0048,-0.0816 -0.0048,-0.1284 0,-0.0468 0.0012,-0.0924 0.0048,-0.138 -0.372,-0.048 -0.804,-0.0816 -1.2432,-0.0864 -0.3048,0 -0.5928,0.018 -0.8808,0.0444 0.168,0.3972 0.588,0.75 0.792,1.2372 0.0864,0.1884 0.1368,0.4092 0.1368,0.642 0,0.3504 -0.114,0.6744 -0.3084,0.9348 -0.3324,1.2048 0.4224,1.9152 0.5436,3.0564 0.108,1.0536 0.096,0.36 -0.648,0.6852 -0.156,0.0684 -0.3,0.36 -0.432,0.4068 -0.3252,0.0552 -0.6036,0.1236 -0.8748,0.2088 -0.7236,0.5244 -1.3392,1.2336 -1.7508,2.0628 -0.0012,0.1116 0.006,0.2028 0.006,0.2952 0,0.2484 -0.0516,0.4848 -0.144,0.6996 C 8.0652,12.8808 8.2932,12.4464 8.0652,12.3816 7.8696,12.2004 7.6188,12.0768 7.3404,12.0408 6.8856,12.06 6.4824,12.2424 6.1812,12.5304 c -0.7308,1.2192 0.9372,0.672 1.2612,0.8532 0.2016,0.4452 0.414,0.8232 0.654,1.1808 0.258,0.1944 -0.03,0.3036 0.462,0.3864 0.3984,-0.1296 0.732,-0.2664 1.0524,-0.426 1.1676,-0.0996 1.8516,0.8724 2.7636,1.4988 0.6924,0.27 1.29,0.6024 1.8336,1.0032 0.0504,0.2076 0.0912,0.4656 0.0912,0.732 0,0.552 -0.1776,1.062 -0.4788,1.4772 -0.2616,0.312 -0.5568,0.5928 -0.882,0.8364 -0.1752,0.3024 -0.3372,0.6552 -0.474,1.0188 -0.132,0.2256 -0.2424,0.3708 -0.3612,0.5088 3.1032,-0.0444 5.8428,-1.5432 7.572,-3.8448 -0.33,-0.1152 -0.786,-0.0336 -1.47,-0.1956 -0.8868,-0.2136 -1.5348,-0.9996 -1.5348,-1.9368 0,-0.1884 0.0264,-0.3696 0.0744,-0.5412 0.2244,-0.7884 0.9564,-1.3332 1.1244,-2.1336 0.0672,-0.4944 0.2148,-0.9432 0.4308,-1.3488 0.1692,-0.3144 0.6492,-0.5604 0.1452,-1.0164 -0.0792,-0.0036 -0.1524,-0.0216 -0.2196,-0.0504 -0.2244,-0.1608 -0.8844,-0.6156 -0.1644,-1.0368 0.042,-0.024 0.0696,-0.0672 0.0696,-0.1188 0,-0.0456 -0.0228,-0.0864 -0.0576,-0.1104 C 18.0804,9.072 18.1776,8.9028 18.3228,8.7972 18.4308,8.7744 18.5244,8.7288 18.6012,8.6628 18.66,8.682 19.716,11.304 19.908,9.3588 19.956,8.916 19.584,9.1848 19.512,8.6952 19.5132,8.0664 19.7208,7.4856 20.0688,7.0176 20.0856,6.9972 20.106,6.966 20.1228,6.9336 19.3152,5.6376 18.2472,4.5804 16.986,3.8064 Z"
     id="path4"
     inkscape:connector-curvature="0"
     style="fill:#bebebe;fill-opacity:1" />
</svg>
