<?xml version="1.0" encoding="UTF-8" standalone="no"?>
<!-- Generator: Adobe Illustrator 16.0.0, SVG Export Plug-In . SVG Version: 6.00 Build 0)  -->

<svg
   xmlns:dc="http://purl.org/dc/elements/1.1/"
   xmlns:cc="http://creativecommons.org/ns#"
   xmlns:rdf="http://www.w3.org/1999/02/22-rdf-syntax-ns#"
   xmlns:svg="http://www.w3.org/2000/svg"
   xmlns="http://www.w3.org/2000/svg"
   xmlns:sodipodi="http://sodipodi.sourceforge.net/DTD/sodipodi-0.dtd"
   xmlns:inkscape="http://www.inkscape.org/namespaces/inkscape"
   version="1.1"
   id="Capa_1"
   x="0px"
   y="0px"
   width="24"
   height="24"
   viewBox="0 0 24 24"
   xml:space="preserve"
   inkscape:version="0.91 r13725"
   sodipodi:docname="hdd-circular-button.svg"><metadata
     id="metadata49"><rdf:RDF><cc:Work
         rdf:about=""><dc:format>image/svg+xml</dc:format><dc:type
           rdf:resource="http://purl.org/dc/dcmitype/StillImage" /><dc:title></dc:title></cc:Work></rdf:RDF></metadata><defs
     id="defs47" /><sodipodi:namedview
     pagecolor="#ffffff"
     bordercolor="#666666"
     borderopacity="1"
     objecttolerance="10"
     gridtolerance="10"
     guidetolerance="10"
     inkscape:pageopacity="0"
     inkscape:pageshadow="2"
     inkscape:window-width="1114"
     inkscape:window-height="625"
     id="namedview45"
     showgrid="false"
     inkscape:zoom="10.429825"
     inkscape:cx="11.070943"
     inkscape:cy="11.995403"
     inkscape:window-x="632"
     inkscape:window-y="246"
     inkscape:window-maximized="0"
     inkscape:current-layer="g5" /><g
     id="g3"
     transform="scale(0.046875,0.046875)"><g
       id="g5"><g
         id="g9"
         style="fill:#bebebe;fill-opacity:1"><path
           d="M 367.219,280.047 354.625,151.969 C 354.203,147.578 350.25,144 345.844,144 l -176.25,0 c -4.406,0 -8.438,3.578 -8.969,7.938 L 144.969,280.079 C 144.438,284.437 144,291.609 144,296.017 L 144,360 c 0,4.406 3.594,8 8,8 l 208,0 c 4.406,0 8,-3.594 8,-8 l 0,-63.984 c 0,-4.407 -0.359,-11.578 -0.781,-15.969 z M 352,344 c 0,4.406 -3.594,8 -8,8 l -176,0 c -4.406,0 -8,-3.594 -8,-8 l 0,-32 c 0,-4.406 3.594,-8 8,-8 l 176,0 c 4.406,0 8,3.594 8,8 l 0,32 z"
           id="path11"
           inkscape:connector-curvature="0"
           style="fill:#bebebe;fill-opacity:1" /><path
           d="m 329.594,320 -144,0 c -4.406,0 -8,3.594 -8,8.016 0,4.438 3.594,7.984 8,7.984 l 144,0 c 4.438,0 7.984,-3.547 7.984,-7.984 0,-4.422 -3.547,-8.016 -7.984,-8.016 z"
           id="path13"
           inkscape:connector-curvature="0"
           style="fill:#bebebe;fill-opacity:1" /></g><path
         style="opacity:1;fill:#bebebe;fill-opacity:1;stroke:none;stroke-width:0.68699998;stroke-linejoin:miter;stroke-miterlimit:4;stroke-dasharray:none;stroke-dashoffset:0;stroke-opacity:1"
         d="M 256,0 A 256,256 0 0 0 0,256 256,256 0 0 0 256,512 256,256 0 0 0 512,256 256,256 0 0 0 256,0 Z m 0,53.33333 A 202.66667,202.66667 0 0 1 458.66667,256 202.66667,202.66667 0 0 1 256,458.66667 202.66667,202.66667 0 0 1 53.333333,256 202.66667,202.66667 0 0 1 256,53.33333 Z"
         id="path4137"
         inkscape:connector-curvature="0" /></g></g><g
     id="g15"
     transform="translate(0,-488)" /><g
     id="g17"
     transform="translate(0,-488)" /><g
     id="g19"
     transform="translate(0,-488)" /><g
     id="g21"
     transform="translate(0,-488)" /><g
     id="g23"
     transform="translate(0,-488)" /><g
     id="g25"
     transform="translate(0,-488)" /><g
     id="g27"
     transform="translate(0,-488)" /><g
     id="g29"
     transform="translate(0,-488)" /><g
     id="g31"
     transform="translate(0,-488)" /><g
     id="g33"
     transform="translate(0,-488)" /><g
     id="g35"
     transform="translate(0,-488)" /><g
     id="g37"
     transform="translate(0,-488)" /><g
     id="g39"
     transform="translate(0,-488)" /><g
     id="g41"
     transform="translate(0,-488)" /><g
     id="g43"
     transform="translate(0,-488)" /></svg>