<?xml version="1.0" encoding="UTF-8" standalone="no"?>
<!-- Created with Inkscape (http://www.inkscape.org/) -->

<svg
   xmlns:dc="http://purl.org/dc/elements/1.1/"
   xmlns:cc="http://creativecommons.org/ns#"
   xmlns:rdf="http://www.w3.org/1999/02/22-rdf-syntax-ns#"
   xmlns:svg="http://www.w3.org/2000/svg"
   xmlns="http://www.w3.org/2000/svg"
   xmlns:sodipodi="http://sodipodi.sourceforge.net/DTD/sodipodi-0.dtd"
   xmlns:inkscape="http://www.inkscape.org/namespaces/inkscape"
   width="64"
   height="64"
   id="svg3790"
   version="1.1"
   inkscape:version="0.91 r13725"
   sodipodi:docname="feed-service-ttrss-symbolic.svg">
  <defs
     id="defs3792" />
  <sodipodi:namedview
     id="base"
     pagecolor="#ffffff"
     bordercolor="#666666"
     borderopacity="1.0"
     inkscape:pageopacity="0.0"
     inkscape:pageshadow="2"
     inkscape:zoom="16"
     inkscape:cx="11.568379"
     inkscape:cy="25.586099"
     inkscape:document-units="px"
     inkscape:current-layer="layer2"
     showgrid="true"
     inkscape:window-width="1920"
     inkscape:window-height="1145"
     inkscape:window-x="0"
     inkscape:window-y="27"
     inkscape:window-maximized="1"
     showguides="false">
    <inkscape:grid
       type="xygrid"
       id="grid4177" />
  </sodipodi:namedview>
  <metadata
     id="metadata3795">
    <rdf:RDF>
      <cc:Work
         rdf:about="">
        <dc:format>image/svg+xml</dc:format>
        <dc:type
           rdf:resource="http://purl.org/dc/dcmitype/StillImage" />
        <dc:title />
      </cc:Work>
    </rdf:RDF>
  </metadata>
  <g
     inkscape:groupmode="layer"
     id="layer2"
     inkscape:label="Layer 2"
     style="display:inline">
    <path
       transform="translate(0,-988.36218)"
       style="fill:#bebebe;fill-opacity:1;stroke:none"
       d="m 0,988.73718 0,12.71872 a 50.910164,50.911174 0 0 1 22.34375,5.1875 l 2.125,-8.34372 6.65625,-1.40625 A 63.637705,63.638967 0 0 0 0,988.73718 Z m 38.375,12.93752 -1.5,6.0625 8.46875,0 a 63.637705,63.638967 0 0 0 -6.96875,-6.0625 z m 9.15625,8.5 -1.875,6.7187 -9.1875,0 a 50.910164,50.911174 0 0 1 14.4375,35.4688 l 12.71875,0 a 63.637705,63.638967 0 0 0 -16.09375,-42.1875 z"
       id="path3812"
       inkscape:connector-curvature="0" />
    <path
       transform="translate(0,-988.36218)"
       inkscape:connector-curvature="0"
       style="fill:#bebebe;fill-opacity:1;stroke:none"
       d="m 0,1010.1747 0,12.375 a 29.818811,29.819401 0 0 1 17.03125,5.375 l 2.75,-11.0313 -7.375,0 1.25,-4.4062 A 42.182708,42.183543 0 0 0 0,1010.1747 Z m 32.34375,15.1875 -1.65625,6.5937 c -0.06215,0.3409 -0.156775,0.7004 -0.25,1.0938 l -0.28125,1.1875 c -0.06215,0.3933 -0.125354,0.7892 -0.1875,1.1562 -0.06215,0.341 -0.09375,0.6078 -0.09375,0.8438 0,1.0488 0.316007,1.8142 0.9375,2.3125 0.621491,0.4982 1.664318,0.75 3.09375,0.75 0.372895,0 0.815657,-0.015 1.375,-0.094 0.590419,-0.079 1.190833,-0.1813 1.78125,-0.3125 0.621493,-0.131 1.221907,-0.2751 1.78125,-0.4062 0.350629,-0.099 0.578597,-0.172 0.84375,-0.25 a 42.182708,42.183543 0 0 0 -7.34375,-12.875 z m 7.625,13.6562 -2.0625,8.2813 c -0.559343,0.1835 -1.25456,0.3789 -2.0625,0.5625 -0.807939,0.1835 -1.692937,0.3426 -2.65625,0.5 -0.963313,0.1573 -1.974714,0.27 -3.03125,0.375 -0.199195,0.02 -0.395727,0.046 -0.59375,0.062 a 29.818811,29.819401 0 0 1 0.25,3.5625 l 12.375,0 a 42.182708,42.183543 0 0 0 -2.21875,-13.3438 z"
       id="path3802" />
    <path
       transform="translate(0,-988.36218)"
       inkscape:connector-curvature="0"
       style="fill:#bebebe;fill-opacity:1;stroke:none"
       d="m 8.71875,1034.8934 c -4.8200412,0 -8.71875,3.9299 -8.71875,8.75 0,4.8202 3.8987088,8.7188 8.71875,8.7188 4.073492,0 7.506542,-2.7886 8.46875,-6.5625 -0.811488,-0.862 -1.442993,-1.8342 -1.8125,-2.9375 -0.372896,-1.2062 -0.53125,-2.5215 -0.53125,-3.9375 0,-0.4107 0.03421,-0.9012 0.09375,-1.4375 -1.581747,-1.5977 -3.792918,-2.5938 -6.21875,-2.5938 z"
       id="ellipse3800" />
    <path
       style="display:inline;opacity:1;fill:#bebebe;fill-opacity:1;stroke:none;stroke-width:2;stroke-linejoin:miter;stroke-miterlimit:4;stroke-dasharray:none;stroke-dashoffset:0;stroke-opacity:1"
       d="m 24.728552,61.419759 c -0.145841,-0.02031 -0.705577,-0.0973 -1.243858,-0.171085 -2.954571,-0.404999 -5.917112,-1.783146 -7.254178,-3.374576 -1.630559,-1.940757 -2.333091,-4.088387 -2.335912,-7.140849 -0.0021,-2.222846 0.146707,-3.036416 1.721235,-9.413359 2.160489,-8.750124 2.881335,-11.694133 2.881335,-11.767678 0,-0.042 -1.650653,-0.07636 -3.668117,-0.07636 -2.017464,0 -3.668116,-0.02959 -3.668116,-0.06576 0,-0.03617 0.701707,-2.522092 1.55935,-5.524271 l 1.55935,-5.458508 3.507009,0 3.507009,0 1.193545,-4.662485 1.193544,-4.6624853 2.645223,-0.5497701 C 37.340718,6.263316 41.259637,5.4550246 41.275466,5.4691792 c 0.01006,0.009 -0.596286,2.5205655 -1.347437,5.5812628 -0.751151,3.060698 -1.460351,5.951114 -1.576,6.423146 -0.115648,0.472033 -0.188787,0.879724 -0.162531,0.905981 0.02626,0.02626 2.566808,0.04774 5.645669,0.04774 3.07886,0 5.597547,0.02983 5.597082,0.06629 -7.95e-4,0.06469 -0.438245,1.65027 -2.182372,7.910757 l -0.855698,3.071495 -5.546393,0 c -3.050516,0 -5.565931,0.03161 -5.589811,0.07025 -0.0635,0.102751 -3.348472,13.140818 -3.763511,14.937411 -0.780415,3.378202 -0.804342,4.185643 -0.143617,4.846368 0.997089,0.997089 4.12997,0.777467 8.845469,-0.620092 0.729095,-0.216086 1.3294,-0.386165 1.334011,-0.377955 0.0046,0.0082 -0.624955,2.570155 -1.399034,5.693209 l -1.407418,5.678281 -0.722089,0.219118 c -1.626676,0.493615 -3.924694,0.955948 -6.423137,1.292255 -1.060262,0.142719 -1.959557,0.190924 -3.977476,0.213204 -1.434101,0.01583 -2.72678,0.01217 -2.872621,-0.0081 l 0,-2e-6 z m 5.991575,-2.076135 c 2.192681,-0.24323 5.376021,-0.824854 6.16499,-1.126396 0.203395,-0.07774 0.274998,-0.312755 1.082345,-3.55252 0.475498,-1.908102 0.851227,-3.48259 0.834954,-3.498864 -0.01627,-0.01627 -0.688122,0.105106 -1.492997,0.269731 -1.982988,0.405592 -3.034285,0.522573 -4.069364,0.452809 C 30.74066,51.719926 29.36251,50.71118 29.00527,48.788706 28.749726,47.413505 28.95459,46.424986 31.872039,34.955929 l 1.8774,-7.380427 5.581844,-0.02275 5.581844,-0.02276 0.133926,-0.463381 c 0.460577,-1.593587 1.82278,-6.528998 1.82278,-6.604129 0,-0.06097 -1.8391,-0.09063 -5.618616,-0.09063 -5.309034,0 -5.616173,-0.0085 -5.574265,-0.15468 C 35.954116,19.250545 38.65686,8.0635521 38.62172,8.0284118 38.58283,7.9895188 25.280363,10.713191 25.253407,10.765566 c -0.0046,0.0089 -0.558907,2.173485 -1.231858,4.810228 l -1.223547,4.794079 -3.541161,0.02309 -3.541161,0.02309 -0.993271,3.49134 c -0.546298,1.920237 -0.994381,3.521171 -0.995738,3.557631 -0.0014,0.03646 1.628297,0.06629 3.621454,0.06629 2.163921,0 3.623922,0.03297 3.623922,0.08185 0,0.04501 -0.996419,4.111984 -2.214265,9.037708 -1.217846,4.925724 -2.310199,9.382901 -2.427453,9.904838 -0.340065,1.513753 -0.508022,2.928574 -0.501173,4.221743 0.01913,3.6112 1.265277,5.962114 3.877148,7.314393 2.654005,1.374096 6.238551,1.781501 11.013823,1.251787 z"
       id="path4194"
       inkscape:connector-curvature="0" />
  </g>
</svg>
