<?xml version="1.0" encoding="UTF-8" standalone="no"?>
<svg
   xmlns:dc="http://purl.org/dc/elements/1.1/"
   xmlns:cc="http://creativecommons.org/ns#"
   xmlns:rdf="http://www.w3.org/1999/02/22-rdf-syntax-ns#"
   xmlns:svg="http://www.w3.org/2000/svg"
   xmlns="http://www.w3.org/2000/svg"
   xmlns:sodipodi="http://sodipodi.sourceforge.net/DTD/sodipodi-0.dtd"
   xmlns:inkscape="http://www.inkscape.org/namespaces/inkscape"
   enable-background="new 0 0 595.275 311.111"
   xml:space="preserve"
   height="64"
   width="64"
   version="1.1"
   y="0px"
   x="0px"
   viewBox="0 0 64 63.999995"
   id="svg2"
   inkscape:version="0.48.4 r9939"
   sodipodi:docname="owncloud.svg"><metadata
     id="metadata12"><rdf:RDF><cc:Work
         rdf:about=""><dc:format>image/svg+xml</dc:format><dc:type
           rdf:resource="http://purl.org/dc/dcmitype/StillImage" /></cc:Work></rdf:RDF></metadata><defs
     id="defs10" /><sodipodi:namedview
     pagecolor="#ffffff"
     bordercolor="#666666"
     borderopacity="1"
     objecttolerance="10"
     gridtolerance="10"
     guidetolerance="10"
     inkscape:pageopacity="0"
     inkscape:pageshadow="2"
     inkscape:window-width="1920"
     inkscape:window-height="1145"
     id="namedview8"
     showgrid="false"
     inkscape:zoom="7.375"
     inkscape:cx="48.970127"
     inkscape:cy="48.743933"
     inkscape:window-x="0"
     inkscape:window-y="30"
     inkscape:window-maximized="1"
     inkscape:current-layer="svg2" /><rect
     rx="10"
     ry="10"
     height="64"
     width="64"
     y="-3.8146973e-06"
     x="0"
     id="rect4"
     style="fill:#1d2d44" /><path
     style="text-indent:0;text-transform:none;block-progression:tb;color:#000000;fill:#ffffff;enable-background:accumulate"
     d="m 29.166,14.561999 c -4.46585,0 -8.074,3.608 -8.074,8.074 0,1.84085 0.613,3.5351 1.64645,4.8918 2.24195,-2.5949 5.551,-4.24275 9.2455,-4.24275 1.8075,0 3.52155,0.4025 5.066,1.1082 0.12504,-0.5655 0.18998,-1.1536 0.18998,-1.75725 0,-4.46585 -3.608,-8.074 -8.074,-8.074 z m -10.5435,3.736 c -2.3257,0 -4.19525,1.8854 -4.19525,4.2111 0,0.753 0.19426,1.4645 0.53825,2.0739 1.4034,-0.7917 3.02595,-1.25065 4.74935,-1.25065 0.16632,0 0.32652,0.006 0.49077,0.016 -0.0186,-0.23576 -0.03164,-0.4719 -0.03164,-0.7124 0,-1.29535 0.281345,-2.52785 0.77575,-3.64115 -0.66565,-0.44636 -1.46315,-0.69655 -2.3272,-0.69655 z m 19.9155,2.8971 c -0.17182,0 -0.337435,0.021 -0.5066,0.0316 0.07318,0.46136 0.12664,0.9272 0.12664,1.409 0,0.7497 -0.09534,1.47315 -0.26913,2.16885 2.03745,1.12755 3.7295,2.8147 4.84435,4.86015 1.1563,-0.602 2.44625,-0.98475 3.8153,-1.0765 -0.35284,-4.1379 -3.7809,-7.393 -8.0105,-7.393 z m -6.554,3.0079 c -6.249,0 -11.3035,5.054 -11.3035,11.3035 0,6.249 5.054,11.3035 11.3035,11.3035 6.2495,0 11.3035,-5.0545 11.3035,-11.3035 0,-6.2495 -5.0545,-11.3035 -11.3035,-11.3035 z m -12.269,0.0474 c -4.8481,0 -8.7705,3.92235 -8.7705,8.7705 0,2.854 1.3598,5.3805 3.467,6.9815 0.88835,-1.7134 2.6726,-2.88125 4.7335,-2.88125 0.249085,0 0.488165,0.0302 0.72825,0.0634 -0.07536,-0.5483 -0.11082,-1.1092 -0.11082,-1.6781 0,-2.71985 0.88535,-5.235 2.3905,-7.2665 -0.901,-1.1274 -1.54575,-2.48205 -1.8206,-3.9578 -0.203685,-0.014 -0.41011,-0.0316 -0.6174,-0.0316 z m 27.483,5.2245 c -1.4721,0 -2.8511,0.37584 -4.0686,1.0132 0.69135,1.53135 1.0765,3.23045 1.0765,5.0185 0,3.3479 -1.34605,6.388 -3.53035,8.5965 1.60465,1.7815 3.93285,2.8971 6.5225,2.8971 4.8481,0 8.7705,-3.9223 8.7705,-8.7705 0,-4.8481 -3.92235,-8.7545 -8.7705,-8.7545 z m -37.108,1.15575 c -4.4665,-5e-4 -8.09,3.5915 -8.09,8.0575 0,4.466 3.6237,8.0895 8.0895,8.0895 1.6998,0 3.27445,-0.5296 4.5752,-1.4248 -0.5375,-0.8352 -0.8549,-1.83375 -0.8549,-2.8971 0,-0.5519 0.08144,-1.08215 0.237465,-1.5831 -2.43515,-1.75985 -4.0211,-4.62365 -4.0211,-7.852 0,-0.8203 0.1081,-1.6135 0.300795,-2.3747 -0.07998,-0.002 -0.1569,-0.016 -0.23747,-0.016 z m 47.4775,6.934 c -0.238245,0 -0.46878,0.0272 -0.69655,0.0634 0.0126,0.20138 0.0158,0.39704 0.0158,0.6016 0,2.57505 -1.01605,4.9123 -2.65965,6.649 0.8086,0.9403 1.9963,1.5356 3.3404,1.5356 2.4482,0 4.4327,-1.96865 4.4327,-4.4169 0,-2.4482 -1.9845,-4.4327 -4.4327,-4.4327 z m -38.422,0.47492 c -2.4481,0 -4.4169,1.9688 -4.4169,4.4169 0,2.4481 1.9688,4.4327 4.4169,4.4327 1.8765,0 3.4693,-1.1709 4.1161,-2.81795 -1.57825,-1.60745 -2.71255,-3.6581 -3.2137,-5.9365 -0.293285,-0.0606 -0.59095,-0.095 -0.9024,-0.095 z"
     id="path6"
     inkscape:connector-curvature="0" /></svg>