<?xml version="1.0" encoding="UTF-8" standalone="no"?>
<!-- Created with Inkscape (http://www.inkscape.org/) -->

<svg
   xmlns:dc="http://purl.org/dc/elements/1.1/"
   xmlns:cc="http://creativecommons.org/ns#"
   xmlns:rdf="http://www.w3.org/1999/02/22-rdf-syntax-ns#"
   xmlns:svg="http://www.w3.org/2000/svg"
   xmlns="http://www.w3.org/2000/svg"
   xmlns:sodipodi="http://sodipodi.sourceforge.net/DTD/sodipodi-0.dtd"
   xmlns:inkscape="http://www.inkscape.org/namespaces/inkscape"
   id="svg2"
   version="1.1"
   inkscape:version="0.48.4 r9939"
   width="64"
   height="57"
   xml:space="preserve"
   sodipodi:docname="feed-service-feedly-grey.svg"><metadata
     id="metadata8"><rdf:RDF><cc:Work
         rdf:about=""><dc:format>image/svg+xml</dc:format><dc:type
           rdf:resource="http://purl.org/dc/dcmitype/StillImage" /><dc:title></dc:title></cc:Work></rdf:RDF></metadata><defs
     id="defs6"><clipPath
       clipPathUnits="userSpaceOnUse"
       id="clipPath18"><path
         d="m 0,222.027 394.715,0 L 394.715,0 0,0 0,222.027 z"
         id="path20"
         inkscape:connector-curvature="0" /></clipPath><filter
       id="filter2989"
       inkscape:label="Desaturate"
       x="0"
       y="0"
       width="1"
       height="1"
       inkscape:menu="Color"
       inkscape:menu-tooltip="Render in shades of gray by reducing saturation to zero"
       color-interpolation-filters="sRGB"><feColorMatrix
         id="feColorMatrix2991"
         type="saturate"
         values="0" /></filter></defs><sodipodi:namedview
     pagecolor="#ffffff"
     bordercolor="#666666"
     borderopacity="1"
     objecttolerance="10"
     gridtolerance="10"
     guidetolerance="10"
     inkscape:pageopacity="0"
     inkscape:pageshadow="2"
     inkscape:window-width="1920"
     inkscape:window-height="1145"
     id="namedview4"
     showgrid="false"
     inkscape:zoom="8.6676856"
     inkscape:cx="31.298076"
     inkscape:cy="35.381163"
     inkscape:window-x="0"
     inkscape:window-y="30"
     inkscape:window-maximized="1"
     inkscape:current-layer="g22" /><g
     id="g10"
     inkscape:groupmode="layer"
     inkscape:label="feedly-seeklogo.com"
     transform="matrix(1.25,0,0,-1.25,0,56.999998)"><g
       id="g14"
       style="fill:#29af4c;fill-opacity:1"
       transform="matrix(0.39267154,0,0,0.39267154,-9.2520715,-18.499262)"><g
         id="g16"
         clip-path="url(#clipPath18)"
         style="fill:#29af4c;fill-opacity:1"><g
           id="g22"
           transform="translate(97.5313,135.1084)"
           style="fill:#29af4c;fill-opacity:1;filter:url(#filter2989)"><path
             d="M 0,-8.3866517 -35.428,-43.814651 c -0.583,-0.583 -1.735,-1.06 -2.56,-1.06 l -2.518,0 c -0.826,0 -1.977,0.477 -2.561,1.06 l -4.989,4.99 c -0.583,0.583 -0.583,1.538 0,2.121 L -9.869,1.4823483 c 0.583,0.583 1.538,0.583 2.121,0 l 7.748,-7.748 c 0.583,-0.583 0.583,-1.538 0,-2.121 m -0.089,-60.6449993 -5.061,-5.06 c -0.583,-0.583 -1.736,-1.061 -2.561,-1.061 l -2.518,0 c -0.825,0 -1.977,0.478 -2.56,1.061 l -4.989,4.989 c -0.583,0.583 -0.583,1.538 0,2.121 l 7.82,7.82 c 0.583,0.583 1.538,0.583 2.121,0 l 7.748,-7.748 c 0.583,-0.583 0.583,-1.539 0,-2.122 m -22.811,9.068 -2.517,0 c -0.826,0 -1.978,0.477 -2.561,1.06 l -4.989,4.99 c -0.583,0.583 -0.583,1.538 0,2.121 l 22.938,22.937 c 0.583,0.583 1.537,0.583 2.121,0 l 7.747,-7.748 c 0.584,-0.583 0.584,-1.538 0,-2.121 l -20.178,-20.179 c -0.584,-0.583 -1.736,-1.06 -2.561,-1.06 m 75.225,32.059 -51.256,51.256 c -5.518,5.518 -14.546,5.518 -20.063,0 l -50.794,-50.794 c -5.518,-5.517 -5.517,-14.546 0,-20.063 l 30.053,-30.052 c 5.517,-5.517 9.631,-10.032 17.434,-10.032 l 27.602,0 c 7.803,0 11.916,4.515 17.433,10.032 l 29.591,29.59 c 5.517,5.518 5.517,14.546 0,20.063"
             style="fill:#b4b4b4;fill-opacity:1;fill-rule:nonzero;stroke:none"
             id="path24"
             inkscape:connector-curvature="0" /></g></g></g></g></svg>