<?xml version="1.0" encoding="UTF-8" standalone="no"?>
<!-- Created with Inkscape (http://www.inkscape.org/) -->

<svg
   xmlns:dc="http://purl.org/dc/elements/1.1/"
   xmlns:cc="http://creativecommons.org/ns#"
   xmlns:rdf="http://www.w3.org/1999/02/22-rdf-syntax-ns#"
   xmlns:svg="http://www.w3.org/2000/svg"
   xmlns="http://www.w3.org/2000/svg"
   xmlns:sodipodi="http://sodipodi.sourceforge.net/DTD/sodipodi-0.dtd"
   xmlns:inkscape="http://www.inkscape.org/namespaces/inkscape"
   width="64"
   height="64"
   id="svg3790"
   version="1.1"
   inkscape:version="0.48.4 r9939"
   sodipodi:docname="feed-service-ttrss-grey.svg">
  <defs
     id="defs3792" />
  <sodipodi:namedview
     id="base"
     pagecolor="#ffffff"
     bordercolor="#666666"
     borderopacity="1.0"
     inkscape:pageopacity="0.0"
     inkscape:pageshadow="2"
     inkscape:zoom="7.9195959"
     inkscape:cx="19.162862"
     inkscape:cy="22.521974"
     inkscape:document-units="px"
     inkscape:current-layer="layer1"
     showgrid="false"
     inkscape:window-width="1920"
     inkscape:window-height="1145"
     inkscape:window-x="0"
     inkscape:window-y="30"
     inkscape:window-maximized="1" />
  <metadata
     id="metadata3795">
    <rdf:RDF>
      <cc:Work
         rdf:about="">
        <dc:format>image/svg+xml</dc:format>
        <dc:type
           rdf:resource="http://purl.org/dc/dcmitype/StillImage" />
        <dc:title />
      </cc:Work>
    </rdf:RDF>
  </metadata>
  <g
     inkscape:label="Layer 1"
     inkscape:groupmode="layer"
     id="layer1"
     transform="translate(0,-988.36218)">
    <path
       style="fill:#b4b4b4;fill-opacity:1;stroke:none"
       d="M 8.71875 46.53125 C 3.8987088 46.53125 0 50.461113 0 55.28125 C 1.1842379e-15 60.101387 3.8987088 64 8.71875 64 C 12.792242 64 16.225292 61.211435 17.1875 57.4375 C 16.376012 56.575548 15.744507 55.6033 15.375 54.5 C 15.002104 53.2938 14.84375 51.9785 14.84375 50.5625 C 14.84375 50.151857 14.877959 49.661278 14.9375 49.125 C 13.355753 47.527306 11.144582 46.53125 8.71875 46.53125 z "
       transform="translate(0,988.36218)"
       id="ellipse3800" />
    <path
       style="fill:#b4b4b4;fill-opacity:1;stroke:none"
       d="M 0 21.8125 L 0 34.1875 A 29.818811 29.819401 0 0 1 17.03125 39.5625 L 19.78125 28.53125 L 12.40625 28.53125 L 13.65625 24.125 A 42.182708 42.183543 0 0 0 0 21.8125 z M 32.34375 37 L 30.6875 43.59375 C 30.625353 43.934617 30.530725 44.294167 30.4375 44.6875 L 30.15625 45.875 C 30.094097 46.268333 30.030896 46.664183 29.96875 47.03125 C 29.906603 47.372183 29.875 47.639067 29.875 47.875 C 29.875 48.923867 30.191007 49.689233 30.8125 50.1875 C 31.433991 50.6857 32.476818 50.9375 33.90625 50.9375 C 34.279145 50.9375 34.721907 50.922417 35.28125 50.84375 C 35.871669 50.765083 36.472083 50.662383 37.0625 50.53125 C 37.683993 50.400183 38.284407 50.256133 38.84375 50.125 C 39.194379 50.026374 39.422347 49.953009 39.6875 49.875 A 42.182708 42.183543 0 0 0 32.34375 37 z M 39.96875 50.65625 L 37.90625 58.9375 C 37.346907 59.121033 36.65169 59.316467 35.84375 59.5 C 35.035811 59.683533 34.150813 59.842667 33.1875 60 C 32.224187 60.157333 31.212786 60.270067 30.15625 60.375 C 29.957055 60.39537 29.760523 60.421087 29.5625 60.4375 A 29.818811 29.819401 0 0 1 29.8125 64 L 42.1875 64 A 42.182708 42.183543 0 0 0 39.96875 50.65625 z "
       transform="translate(0,988.36218)"
       id="path3802" />
    <path
       style="fill:#b4b4b4;fill-opacity:1;stroke:none"
       d="M 0 0.375 L 0 13.09375 A 50.910164 50.911174 0 0 1 22.34375 18.28125 L 24.46875 9.9375 L 31.125 8.53125 A 63.637705 63.638967 0 0 0 0 0.375 z M 38.375 13.3125 L 36.875 19.375 L 45.34375 19.375 A 63.637705 63.638967 0 0 0 38.375 13.3125 z M 47.53125 21.8125 L 45.65625 28.53125 L 36.46875 28.53125 A 50.910164 50.911174 0 0 1 50.90625 64 L 63.625 64 A 63.637705 63.638967 0 0 0 47.53125 21.8125 z "
       transform="translate(0,988.36218)"
       id="path3812" />
    <path
       inkscape:connector-curvature="0"
       d="m 45.641265,1016.8922 -11.140249,0 -3.822177,15.0643 q -0.09322,0.5113 -0.233058,1.1013 -0.139836,0.59 -0.279671,1.18 -0.09323,0.59 -0.186449,1.1406 -0.09322,0.5114 -0.09322,0.8653 0,1.5733 0.932239,2.3207 0.932237,0.7473 3.076385,0.7473 0.559343,0 1.398357,-0.118 0.885628,-0.118 1.771253,-0.3147 0.932239,-0.1966 1.771253,-0.3933 0.839014,-0.236 1.351746,-0.3933 l -2.283985,9.2038 q -0.839014,0.2753 -2.050924,0.5506 -1.211908,0.2753 -2.656878,0.5113 -1.44497,0.236 -3.029774,0.3934 -1.538195,0.1573 -3.029774,0.1573 -3.542506,0 -5.919715,-0.7867 -2.377207,-0.7473 -3.822177,-2.0846 -1.398357,-1.3766 -2.004311,-3.1859 -0.559344,-1.8093 -0.559344,-3.9333 0,-0.6293 0.09322,-1.4553 0.09322,-0.8259 0.23306,-1.6912 0.186447,-0.8654 0.372896,-1.7307 0.233058,-0.9046 0.419507,-1.6519 l 3.822177,-15.497 -7.364683,0 2.610267,-9.1645 7.038398,0 2.42382,-9.43972 15.521769,-3.2253 -3.122999,12.66502 11.326696,0 -2.563656,9.1645 z"
       style="font-size:medium;font-style:italic;font-variant:normal;font-weight:bold;font-stretch:normal;line-height:125%;letter-spacing:0px;word-spacing:0px;fill:none;stroke:#b4b4b4;stroke-width:2;stroke-linejoin:miter;stroke-miterlimit:4;stroke-opacity:1;stroke-dasharray:none;font-family:Segoe UI;-inkscape-font-specification:Segoe UI Bold Italic"
       id="path5090" />
  </g>
</svg>
