<?xml version="1.0" encoding="UTF-8" standalone="no"?>
<!-- Created with Inkscape (http://www.inkscape.org/) -->

<svg
   xmlns:dc="http://purl.org/dc/elements/1.1/"
   xmlns:cc="http://creativecommons.org/ns#"
   xmlns:rdf="http://www.w3.org/1999/02/22-rdf-syntax-ns#"
   xmlns:svg="http://www.w3.org/2000/svg"
   xmlns="http://www.w3.org/2000/svg"
   xmlns:sodipodi="http://sodipodi.sourceforge.net/DTD/sodipodi-0.dtd"
   xmlns:inkscape="http://www.inkscape.org/namespaces/inkscape"
   width="64"
   height="64"
   viewBox="0 0 63.999999 63.999999"
   id="svg4181"
   version="1.1"
   inkscape:version="0.91 r13725"
   sodipodi:docname="feed-service-inoreader-symbolic.svg">
  <defs
     id="defs4183">
    <pattern
       patternUnits="userSpaceOnUse"
       width="58.042133"
       height="58.46578"
       patternTransform="translate(2.5,991.39642)"
       id="pattern4169">
      <path
         id="rect4201"
         d="m 4.2998803,1.5 49.4423727,0 c 1.551134,0 2.79988,1.24875 2.79988,2.79988 l 0,49.866 c 0,1.5512 -1.248746,2.7999 -2.79988,2.7999 l -49.4423727,0 C 2.7487466,56.96578 1.5,55.71708 1.5,54.16588 l 0,-49.866 C 1.5,2.74875 2.7487466,1.5 4.2998803,1.5 Z"
         style="display:inline;opacity:1;fill:none;fill-opacity:1;stroke:#bebebe;stroke-width:3;stroke-linejoin:round;stroke-miterlimit:4;stroke-dasharray:none;stroke-dashoffset:0;stroke-opacity:1"
         inkscape:connector-curvature="0" />
    </pattern>
  </defs>
  <sodipodi:namedview
     id="base"
     pagecolor="#ffffff"
     bordercolor="#666666"
     borderopacity="1.0"
     inkscape:pageopacity="0.0"
     inkscape:pageshadow="2"
     inkscape:zoom="11.2"
     inkscape:cx="21.782181"
     inkscape:cy="32.664989"
     inkscape:document-units="px"
     inkscape:current-layer="g4141"
     showgrid="false"
     units="px"
     inkscape:window-width="1920"
     inkscape:window-height="1145"
     inkscape:window-x="0"
     inkscape:window-y="27"
     inkscape:window-maximized="1" />
  <metadata
     id="metadata4186">
    <rdf:RDF>
      <cc:Work
         rdf:about="">
        <dc:format>image/svg+xml</dc:format>
        <dc:type
           rdf:resource="http://purl.org/dc/dcmitype/StillImage" />
        <dc:title />
      </cc:Work>
    </rdf:RDF>
  </metadata>
  <g
     inkscape:label="Layer 1"
     inkscape:groupmode="layer"
     id="layer1"
     transform="translate(0,-988.3622)">
    <path
       inkscape:connector-curvature="0"
       style="display:inline;opacity:1;fill:#bebebe;fill-opacity:1;stroke:none;stroke-width:0.00980603;stroke-linejoin:round;stroke-miterlimit:4;stroke-dasharray:none;stroke-dashoffset:0;stroke-opacity:1"
       d="m 25.305725,999.26625 c -0.538545,8e-4 -1.371094,0.008 -1.371094,0.008 0.0055,1.54875 0.0052,3.09185 0,4.20115 1.898195,-0.084 3.820882,0.048 5.742187,0.4004 12.305913,2.2565 21.013531,13.3923 20.423828,25.8223 0.985798,0 2.942309,-10e-5 4.47461,0 0.366859,-8.0783 -2.648415,-16.07 -8.56836,-21.9571 -4.682114,-4.6561 -10.264841,-7.4024 -16.974609,-8.3496 -0.609584,-0.0861 -1.89781,-0.12945 -3.726562,-0.12695 z m -0.962891,9.24225 c -0.145171,0 -0.290625,0.01 -0.435547,0.012 0.03284,1.9227 0.03282,3.2959 0.01563,4.5508 0.209521,0 0.444211,0 0.71875,0 1.613262,6e-4 2.507627,0.1065 3.951172,0.4687 4.528743,1.1364 8.385521,4.2771 10.460937,8.5176 1.04043,2.1258 1.555106,4.2207 1.623047,6.6152 0.0098,0.3448 0.0093,0.6882 -0.002,1.0293 1.437447,0 3.054781,0 4.546875,-0.01 0.01114,-1.0627 -0.018,-2.3362 -0.08203,-2.875 -0.394896,-3.3229 -1.456741,-6.2797 -3.226563,-8.9844 -3.017812,-4.6117 -7.744857,-7.8264 -13.103515,-8.9121 -1.48364,-0.3006 -2.980885,-0.4361 -4.466797,-0.4101 z m -0.597656,8.9804 c -1.00978,0.025 -1.748695,0.1226 -2.669922,0.3535 -4.457731,1.1177 -7.944739,4.7245 -8.943361,9.25 -0.212219,0.9618 -0.28255,1.6423 -0.28125,2.6993 0.0018,1.4286 0.186522,2.5883 0.623047,3.8984 1.393876,4.1833 4.943747,7.3177 9.242189,8.1582 0.412368,0.081 0.966495,0.1546 1.507812,0.2031 0.338006,0.03 1.834379,-0.01 2.240235,-0.059 2.288551,-0.2798 4.41264,-1.1744 6.195312,-2.6113 1.665215,-1.3422 2.934236,-3.0715 3.726563,-5.0762 0.508299,-1.286 0.770907,-2.5176 0.841796,-3.9453 0.243369,-4.9011 -2.463964,-9.5025 -6.853515,-11.6484 -1.779887,-0.8701 -3.625653,-1.2717 -5.628906,-1.2227 z m 3.726562,5.2305 c 0.417354,-0.01 0.844239,0.056 1.261719,0.2051 1.796982,0.6422 2.744177,2.633 2.11914,4.4531 -0.376733,1.097 -1.295483,1.9512 -2.414062,2.2461 -0.427802,0.1128 -1.153741,0.1332 -1.570312,0.043 -1.086663,-0.2353 -1.932162,-0.8929 -2.416016,-1.8789 -0.504834,-1.0288 -0.504053,-2.1069 0.002,-3.125 0.595566,-1.1983 1.765515,-1.913 3.017578,-1.9434 z"
       id="path5701" />
    <g
       id="g4141">
      <rect
         style="stroke:none;fill:none"
         width="58.042133"
         height="58.46578"
         x="2.5"
         y="991.39642"
         id="rect4172" />
      <path
         style="color:#000000;font-style:normal;font-variant:normal;font-weight:normal;font-stretch:normal;font-size:medium;line-height:normal;font-family:sans-serif;text-indent:0;text-align:start;text-decoration:none;text-decoration-line:none;text-decoration-style:solid;text-decoration-color:#000000;letter-spacing:normal;word-spacing:normal;text-transform:none;direction:ltr;block-progression:tb;writing-mode:lr-tb;baseline-shift:baseline;text-anchor:start;white-space:normal;clip-rule:nonzero;display:inline;overflow:visible;visibility:visible;opacity:1;isolation:auto;mix-blend-mode:normal;color-interpolation:sRGB;color-interpolation-filters:linearRGB;solid-color:#000000;solid-opacity:1;fill:#bebebe;fill-opacity:1;fill-rule:nonzero;stroke:none;stroke-width:3;stroke-linecap:butt;stroke-linejoin:round;stroke-miterlimit:4;stroke-dasharray:none;stroke-dashoffset:0;stroke-opacity:1;color-rendering:auto;image-rendering:auto;shape-rendering:auto;text-rendering:auto;enable-background:accumulate"
         d="m 6.8007812,991.39648 c -2.35619,0 -4.3007812,1.9446 -4.3007812,4.30079 l 0,49.86523 c 0,2.3562 1.9446235,4.2988 4.3007812,4.2988 l 49.4414068,0 c 2.356157,0 4.300781,-1.9426 4.300781,-4.2988 l 0,-49.86523 c 0,-2.35619 -1.944591,-4.30079 -4.300781,-4.30079 l -49.4414068,0 z m 0,3 49.4414068,0 c 0.746077,0 1.300781,0.55471 1.300781,1.30079 l 0,49.86523 c 0,0.7462 -0.554671,1.2988 -1.300781,1.2988 l -49.4414068,0 C 6.0546716,1046.8613 5.5,1046.3087 5.5,1045.5625 l 0,-49.86523 c 0,-0.74608 0.5547039,-1.30079 1.3007812,-1.30079 z"
         id="path4892"
         inkscape:connector-curvature="0" />
    </g>
    <g
       id="g4895">
      <rect
         id="rect4897"
         y="991.39642"
         x="2.5"
         height="58.46578"
         width="58.042133"
         style="stroke:none;fill:none" />
    </g>
  </g>
</svg>
