<?xml version="1.0" encoding="UTF-8" standalone="no"?>
<svg
   xmlns:dc="http://purl.org/dc/elements/1.1/"
   xmlns:cc="http://creativecommons.org/ns#"
   xmlns:rdf="http://www.w3.org/1999/02/22-rdf-syntax-ns#"
   xmlns:svg="http://www.w3.org/2000/svg"
   xmlns="http://www.w3.org/2000/svg"
   xmlns:sodipodi="http://sodipodi.sourceforge.net/DTD/sodipodi-0.dtd"
   xmlns:inkscape="http://www.inkscape.org/namespaces/inkscape"
   version="1.1"
   width="16px"
   height="16px"
   id="svg2"
   inkscape:version="0.48.4 r9939"
   sodipodi:docname="arrow-left-hover.svg">
  <metadata
     id="metadata10">
    <rdf:RDF>
      <cc:Work
         rdf:about="">
        <dc:format>image/svg+xml</dc:format>
        <dc:type
           rdf:resource="http://purl.org/dc/dcmitype/StillImage" />
        <dc:title />
      </cc:Work>
    </rdf:RDF>
  </metadata>
  <defs
     id="defs8" />
  <sodipodi:namedview
     pagecolor="#ffffff"
     bordercolor="#666666"
     borderopacity="1"
     objecttolerance="10"
     gridtolerance="10"
     guidetolerance="10"
     inkscape:pageopacity="0"
     inkscape:pageshadow="2"
     inkscape:window-width="1348"
     inkscape:window-height="923"
     id="namedview6"
     showgrid="false"
     inkscape:zoom="41.7193"
     inkscape:cx="3.3514907"
     inkscape:cy="9.7724854"
     inkscape:window-x="170"
     inkscape:window-y="141"
     inkscape:window-maximized="0"
     inkscape:current-layer="svg2" />
  <path
     d="m 3,14.244148 c 0,0.487624 0.1848905,0.929273 0.4997864,1.248827 C 3.8144733,15.812531 4.2495799,16 4.7300128,16 5.2104455,16 5.6455861,15.812531 5.9602732,15.492975 L 12.726613,8.6244267 c 0.615121,-0.6244136 0,-1.2488272 0,-1.2488272 L 5.9602732,0.50705047 C 5.6455861,0.1874956 5.2104626,2.667e-5 4.7300298,2.667e-5 4.249597,2.667e-5 3.8144733,0.1874956 3.4997864,0.50705047 3.1848905,0.82660535 3,1.2682544 3,1.7558776 3,2.2435008 3.1848905,2.6851498 3.4997864,3.0047046 l 4.305852,4.3708949 c 0.6151217,0.6244136 0.6151217,0.6244136 0,1.2488272 L 3.4997864,12.995321 C 3.1848905,13.314876 3,13.756526 3,14.244148 z"
     style="fill:#ffffff;fill-opacity:1;stroke:none"
     id="path4"
     inkscape:connector-curvature="0" />
</svg>
