<?xml version="1.0" encoding="UTF-8" standalone="no"?>
<!-- Generator: Adobe Illustrator 15.0.0, SVG Export Plug-In . SVG Version: 6.00 Build 0)  -->

<svg
   xmlns:dc="http://purl.org/dc/elements/1.1/"
   xmlns:cc="http://creativecommons.org/ns#"
   xmlns:rdf="http://www.w3.org/1999/02/22-rdf-syntax-ns#"
   xmlns:svg="http://www.w3.org/2000/svg"
   xmlns="http://www.w3.org/2000/svg"
   xmlns:sodipodi="http://sodipodi.sourceforge.net/DTD/sodipodi-0.dtd"
   xmlns:inkscape="http://www.inkscape.org/namespaces/inkscape"
   version="1.1"
   id="Calque_1"
   x="0px"
   y="0px"
   width="32"
   height="32"
   viewBox="0 0 32 32"
   enable-background="new 0 0 200 237"
   xml:space="preserve"
   inkscape:version="0.91 r13725"
   sodipodi:docname="feed-share-wallabag.svg"><metadata
     id="metadata35"><rdf:RDF><cc:Work
         rdf:about=""><dc:format>image/svg+xml</dc:format><dc:type
           rdf:resource="http://purl.org/dc/dcmitype/StillImage" /><dc:title /></cc:Work></rdf:RDF></metadata><defs
     id="defs33" /><sodipodi:namedview
     pagecolor="#ffffff"
     bordercolor="#666666"
     borderopacity="1"
     objecttolerance="10"
     gridtolerance="10"
     guidetolerance="10"
     inkscape:pageopacity="0"
     inkscape:pageshadow="2"
     inkscape:window-width="1920"
     inkscape:window-height="1131"
     id="namedview31"
     showgrid="false"
     inkscape:zoom="11.265971"
     inkscape:cx="2.1926757"
     inkscape:cy="15.089227"
     inkscape:window-x="0"
     inkscape:window-y="30"
     inkscape:window-maximized="1"
     inkscape:current-layer="g3" /><g
     id="g3"
     transform="translate(0,-205)"><g
       id="g5"
       transform="matrix(0.1901008,0,0,0.190099,1.199644,205.00014)" /><path
       d="m 28.861564,209.51188 c -0.860193,0 -1.575288,0.25908 -2.122157,0.77057 -0.553231,0.51797 -0.833022,1.1157 -0.833022,1.77646 l 0,11.70036 c 0,1.57065 -0.278065,2.7274 -0.827245,3.44074 -0.530682,0.68966 -1.378158,1.02495 -2.590983,1.02495 -1.240576,0 -2.086319,-0.33298 -2.585783,-1.01686 -0.522015,-0.71392 -0.786201,-1.87356 -0.786201,-3.44825 l 0,-11.74719 c 0,-0.80007 -0.364193,-1.45445 -1.055005,-1.89205 -0.938814,-0.5914 -1.873003,-0.80585 -3.009521,-0.4278 -0.346851,0.11617 -0.672893,0.26639 -0.970608,0.4486 -0.31679,0.1925 -0.584446,0.43471 -0.796604,0.71739 -0.2347,0.3145 -0.35379,0.6567 -0.35379,1.01687 l 0,11.88302 c 0,1.57296 -0.264167,2.73318 -0.786198,3.44768 -0.501203,0.68503 -1.346942,1.01802 -2.585783,1.01802 -1.242306,0 -2.096722,-0.33472 -2.611798,-1.02091 -0.535304,-0.71392 -0.807007,-1.87298 -0.807007,-3.44421 l 0,-11.70036 c 0,-0.66134 -0.279798,-1.25907 -0.834181,-1.77646 -0.547447,-0.511 -1.2764142,-0.77057 -2.1666703,-0.77057 -0.9168432,0 -1.6735621,0.25665 -2.2487576,0.76133 C 0.3000261,210.79117 0,211.39237 0,212.05891 l 0,11.51827 c 0,1.44868 0.141617,2.81929 0.4196875,4.07201 0.2855755,1.28045 0.7844645,2.40481 1.4827942,3.34188 0.7052661,0.94632 1.6625782,1.6932 2.8459213,2.22272 C 5.919606,233.73523 7.38448,234 9.102552,234 c 1.790338,0 3.289894,-0.3324 4.456475,-0.98621 0.978121,-0.54919 1.801896,-1.27121 2.45629,-2.15104 0.631271,0.87983 1.435967,1.60185 2.400793,2.14989 1.150972,0.65496 2.674232,0.98736 4.525842,0.98736 1.718656,0 3.176588,-0.26547 4.334499,-0.78794 1.166575,-0.52894 2.115217,-1.27583 2.821642,-2.22099 0.699485,-0.93995 1.198371,-2.06431 1.482213,-3.34188 C 31.858371,226.39647 32,225.02586 32,223.57718 l 0,-11.51884 c 0,-0.66366 -0.290776,-1.26312 -0.86193,-1.78167 -0.561322,-0.50753 -1.327286,-0.76479 -2.276506,-0.76479 z"
       id="path11"
       inkscape:connector-curvature="0" /><g
       id="g13" /></g></svg>