<?xml version="1.0" encoding="UTF-8" standalone="no"?>
<!-- Generator: Adobe Illustrator 16.0.0, SVG Export Plug-In . SVG Version: 6.00 Build 0)  -->

<svg
   xmlns:dc="http://purl.org/dc/elements/1.1/"
   xmlns:cc="http://creativecommons.org/ns#"
   xmlns:rdf="http://www.w3.org/1999/02/22-rdf-syntax-ns#"
   xmlns:svg="http://www.w3.org/2000/svg"
   xmlns="http://www.w3.org/2000/svg"
   xmlns:sodipodi="http://sodipodi.sourceforge.net/DTD/sodipodi-0.dtd"
   xmlns:inkscape="http://www.inkscape.org/namespaces/inkscape"
   id="Layer_1"
   xml:space="preserve"
   height="32"
   viewBox="0 0 32 31.999692"
   width="32"
   version="1.1"
   y="0px"
   x="0px"
   enable-background="new 0 0 415 414.996"
   inkscape:version="0.91 r13725"
   sodipodi:docname="feed-share-pocket.svg"><metadata
     id="metadata9"><rdf:RDF><cc:Work
         rdf:about=""><dc:format>image/svg+xml</dc:format><dc:type
           rdf:resource="http://purl.org/dc/dcmitype/StillImage" /></cc:Work></rdf:RDF></metadata><defs
     id="defs7" /><sodipodi:namedview
     pagecolor="#ffffff"
     bordercolor="#666666"
     borderopacity="1"
     objecttolerance="10"
     gridtolerance="10"
     guidetolerance="10"
     inkscape:pageopacity="0"
     inkscape:pageshadow="2"
     inkscape:window-width="1920"
     inkscape:window-height="1131"
     id="namedview5"
     showgrid="false"
     inkscape:snap-global="true"
     inkscape:zoom="16"
     inkscape:cx="16.583913"
     inkscape:cy="14.475236"
     inkscape:window-x="0"
     inkscape:window-y="30"
     inkscape:window-maximized="1"
     inkscape:current-layer="Layer_1" /><path
     d="M 0.07857655,4.370978 C 0.44560967,2.7419397 2.2641497,2.1795439 4.0924369,2.1935164 c 8.1183771,0.061511 16.2380641,0.027805 24.3565421,0.025305 0.934992,-2.2e-4 1.918934,-0.012203 2.567783,0.7504384 0.429649,0.5050231 0.828106,1.187638 0.897526,1.8133444 0.05586,0.5468344 0.172202,7.9078287 -0.137116,11.8322317 -0.509464,6.464682 -5.421599,11.93079 -11.738014,13.507701 C 11.011992,32.375263 2.1570399,26.745614 0.3830127,17.619901 0.25640936,16.968451 0.17897507,16.307469 0.07868658,15.650818 0.10084424,11.688459 -0.14769962,5.7289715 0.07857655,4.370978 Z M 16.089189,16.613686 C 15.668212,16.228984 15.291202,15.897034 14.928385,15.55035 13.341183,14.03399 11.767632,12.503318 10.170038,10.998 c -1.0345215,-0.97474 -2.3079663,-0.958387 -3.2249754,-0.002 -0.8629692,0.900436 -0.8620991,2.251426 0.083515,3.168004 2.4666249,2.391681 4.9515536,4.764839 7.4537046,7.119163 1.009076,0.949715 2.078903,1.014477 3.070856,0.09162 2.584477,-2.405864 5.15161,-4.833721 7.64434,-7.333602 1.263263,-1.266834 0.54282,-3.326994 -1.203902,-3.712995 -0.903806,-0.199926 -1.588933,0.228092 -2.214179,0.831784 -1.872574,1.807592 -3.758163,3.604365 -5.689228,5.452034 z"
     id="path3"
     inkscape:connector-curvature="0"
     style="clip-rule:evenodd;fill:#ff0042;fill-rule:evenodd;stroke:none;stroke-width:0.68699998;stroke-miterlimit:4;stroke-dasharray:none;stroke-opacity:1"
     sodipodi:nodetypes="cccccccccccccccccccccc" /></svg>